<?xml version="1.0" encoding="UTF-8"?>
<!DOCTYPE svg PUBLIC "-//W3C//DTD SVG 1.1//EN" "http://www.w3.org/Graphics/SVG/1.1/DTD/svg11.dtd">
<!-- Creator: CorelDRAW X5 -->
<svg xmlns="http://www.w3.org/2000/svg" xml:space="preserve" width="210mm" height="80.852mm" style="shape-rendering:geometricPrecision; text-rendering:geometricPrecision; image-rendering:optimizeQuality; fill-rule:evenodd; clip-rule:evenodd"
viewBox="0 0 21000 8085"
 xmlns:xlink="http://www.w3.org/1999/xlink">
 <defs>
  <style type="text/css">
   <![CDATA[
    .fil1 {fill:#E62129}
    .fil0 {fill:#FEFEFE}
    .fil2 {fill:black}
   ]]>
  </style>
 </defs>
 <g id="Layer_x0020_1">
  <metadata id="CorelCorpID_0Corel-Layer"/>
  <path class="fil0" d="M7741 4857c197,221 317,512 317,829 0,687 -561,1248 -1248,1248 -466,0 -874,-258 -1088,-638 -215,376 -621,631 -1084,631 -687,0 -1248,-561 -1248,-1248 0,-315 118,-603 311,-823 -561,-122 -984,-623 -984,-1220 0,-687 561,-1248 1248,-1248 183,0 356,40 513,111 -4,-40 -6,-81 -6,-123 0,-687 561,-1248 1248,-1248 687,0 1248,561 1248,1248 0,41 -2,82 -6,123 156,-70 328,-109 509,-109 687,0 1248,561 1248,1248 0,595 -420,1095 -979,1219z"/>
  <path class="fil1" d="M7963 4928c55,83 101,173 137,268 58,153 90,318 90,490 0,380 -155,726 -405,976 -250,250 -596,405 -976,405 -253,0 -490,-69 -695,-189 -152,-89 -285,-206 -393,-344 -108,136 -241,252 -392,340 -204,119 -440,187 -692,187 -380,0 -726,-155 -976,-405 -250,-250 -405,-596 -405,-976 0,-170 31,-334 89,-486 35,-93 80,-182 134,-264 -233,-88 -436,-237 -589,-428 -191,-237 -306,-538 -306,-865 0,-380 155,-726 405,-976 250,-250 596,-405 976,-405 99,0 196,11 290,31 29,6 57,13 85,21 17,-353 169,-672 404,-907 250,-250 596,-405 976,-405 380,0 726,155 976,405 235,235 386,555 404,908 28,-8 55,-15 84,-21 94,-20 190,-31 288,-31 380,0 726,155 976,405 250,250 405,596 405,976 0,326 -114,626 -304,863 -152,190 -354,339 -585,427zm-3485 -2429c-4,-40 -6,-81 -6,-123 0,-687 561,-1248 1248,-1248 687,0 1248,561 1248,1248 0,41 -2,82 -6,123 156,-70 328,-109 509,-109 687,0 1248,561 1248,1248 0,595 -420,1095 -979,1219 197,221 317,512 317,829 0,687 -561,1248 -1248,1248 -466,0 -874,-258 -1088,-638 -215,376 -621,631 -1084,631 -687,0 -1248,-561 -1248,-1248 0,-315 118,-603 311,-823 -561,-122 -984,-623 -984,-1220 0,-687 561,-1248 1248,-1248 183,0 356,40 513,111z"/>
  <polygon class="fil1" points="5108,2305 6328,2305 6328,3523 7546,3523 7546,4743 6328,4743 6328,5962 5108,5962 5108,4743 3889,4743 3889,3523 5108,3523 "/>
  <path class="fil2" d="M11903 7085c-33,-5 -75,-14 -104,-33 -57,-23 -109,-91 -128,-147 -1,-1 -2,-2 -3,-3 -11,-35 -22,-70 -31,-105 -4,-19 -7,-36 -10,-54 -4,-40 -8,-79 -12,-118 0,-89 1,-177 2,-265 10,-67 13,-134 36,-198 17,-70 56,-135 111,-180 15,-10 29,-20 44,-28 9,-5 19,-9 28,-13 11,-4 22,-7 33,-10 33,-4 67,-10 100,-10 22,3 43,6 66,10 21,9 42,15 61,27 37,19 69,55 93,87 1,0 2,0 4,0 1,-2 2,-4 4,-6 0,-148 0,-296 1,-443 5,-5 11,-5 18,-8 85,0 170,0 256,0 6,0 10,5 14,9 -1,487 -1,973 -1,1461 -6,6 -13,7 -22,8 -81,0 -163,0 -243,0 -3,-3 -6,-6 -9,-9 -1,-31 -2,-63 -2,-93 -3,-1 -6,-2 -9,-2 -48,62 -77,84 -151,116 -35,10 -123,15 -147,7zm123 -212c-8,-2 -16,-4 -23,-6 -31,-16 -53,-30 -68,-63 -8,-8 -5,-23 -13,-31 -5,-23 -9,-46 -13,-69 -3,-29 -6,-59 -8,-88 -1,-52 -2,-104 -2,-156 3,-49 6,-97 10,-145 6,-43 14,-92 41,-126 0,-19 54,-39 66,-43 21,0 41,0 62,0 10,3 20,6 29,10 7,5 14,10 21,15 21,22 33,41 39,70 10,10 6,33 14,46 3,26 7,53 11,80 4,119 8,241 -10,359 -4,17 -8,33 -12,51 -5,11 -10,22 -14,32 -4,16 -23,35 -34,44 -8,4 -15,8 -22,12 -24,5 -50,7 -75,8z"/>
  <path class="fil2" d="M13068 7091c-1,-2 -2,-4 -2,-6 -42,-7 -91,-13 -130,-29 -14,-7 -26,-14 -39,-20 -17,-13 -33,-25 -49,-38 -10,-11 -27,-26 -33,-39 -16,0 -51,-96 -57,-106 -8,-27 -15,-55 -22,-81 -7,-54 -14,-108 -20,-162 0,-2 0,-3 0,-4 0,-61 0,-121 1,-182 0,-20 -1,-41 6,-60 3,-56 11,-112 29,-164 8,-39 30,-73 48,-109 6,-10 12,-19 18,-27 2,-2 4,-3 6,-4 7,-15 36,-49 52,-53 0,-10 37,-25 45,-33 6,-4 13,-7 20,-10 21,-8 41,-16 63,-24 64,-13 125,-20 190,-20 29,3 59,6 88,10 32,8 65,18 96,29 14,8 28,16 43,23 0,3 25,19 29,21 0,1 0,2 1,4 51,44 85,105 103,168 1,1 2,3 4,5 9,46 23,92 25,139 8,38 9,80 10,119 -1,70 -2,139 -3,210 -11,27 -2,76 -17,99 -5,21 -9,42 -13,64 -4,12 -8,24 -12,37 -4,8 -7,16 -10,24 -19,35 -38,70 -64,102 -8,5 -31,24 -34,31 -23,16 -52,40 -79,45 -43,22 -98,28 -146,34 0,1 0,3 0,5 -46,0 -92,0 -137,0 0,-2 0,-4 0,-5 -2,0 -4,0 -6,0 0,1 0,3 0,5 -2,0 -4,0 -5,0zm59 -194c-12,-5 -24,-9 -34,-13 0,-2 0,-3 0,-4 -23,-9 -32,-26 -45,-45 -1,0 -2,0 -3,0 -7,-17 -14,-32 -20,-48 -11,-39 -14,-80 -16,-120 -16,-94 -4,-195 -4,-290 8,-59 6,-120 30,-175 6,-12 13,-24 20,-34 23,-26 41,-38 75,-46 19,0 59,-6 73,9 10,5 20,10 30,16 0,6 6,8 10,10 10,19 20,37 30,57 36,121 31,253 31,378 -2,47 -9,96 -13,143 -4,15 -7,30 -10,46 -7,17 -13,47 -25,60 -6,13 -19,24 -26,34 -14,7 -27,14 -41,21 -22,1 -43,2 -64,3z"/>
  <path class="fil2" d="M15264 7091c0,-2 0,-4 0,-5 -50,-6 -102,-13 -147,-35 -12,0 -37,-19 -47,-24 0,-2 0,-3 0,-4 -19,0 -59,-48 -69,-57 -27,-39 -56,-84 -67,-132 -17,-33 -21,-82 -26,-119 -1,-29 -2,-59 -3,-88 -13,-26 5,-70 -7,-99 1,-38 2,-76 4,-115 2,-26 4,-53 6,-78 3,-24 6,-48 10,-71 8,-28 16,-57 24,-85 7,-18 14,-35 22,-52 5,-3 16,-29 19,-36 15,-20 29,-38 45,-57 14,-12 28,-23 43,-34 0,-11 44,-25 54,-35 6,-2 12,-4 18,-5 1,-2 3,-3 5,-4 70,-23 142,-32 217,-32 32,5 84,-1 111,17 44,6 86,33 124,56 41,36 75,73 97,125 14,27 25,58 30,89 1,2 2,5 4,8 4,25 8,52 13,78 3,44 6,88 10,132 0,17 5,117 -2,124 -185,0 -369,1 -553,2 -7,3 -7,6 -10,13 0,34 -2,70 4,104 0,76 15,161 77,211 11,5 22,10 32,15 20,0 39,0 59,0 9,-4 19,-7 28,-10 33,-21 54,-52 68,-87 7,-32 19,-67 21,-100 2,-4 4,-8 6,-11 82,0 164,0 247,0 2,3 4,6 6,10 -2,24 -4,49 -5,74 -6,18 -5,42 -14,56 -14,64 -64,163 -126,194 0,8 -54,30 -65,37 -23,4 -49,12 -70,20 -20,2 -38,4 -57,7 0,1 0,3 0,5 -45,0 -90,0 -134,0zm-69 -711c-3,-2 -5,-4 -7,-5 -1,-14 -1,-27 -1,-40 7,-50 4,-104 34,-147 1,-4 3,-8 5,-12 1,-1 3,-1 5,-1 0,-14 27,-32 36,-40 7,-4 15,-7 23,-10 27,-4 62,-8 89,0 16,8 32,18 46,29 46,66 47,143 51,221 -1,0 -2,1 -2,2 -93,0 -186,1 -279,2z"/>
  <path class="fil2" d="M16308 7091c0,-2 0,-4 0,-5 -38,-4 -77,-11 -115,-19 -18,-6 -34,-12 -51,-18 -41,-21 -100,-58 -117,-104 -32,-43 -35,-108 -41,-159 -1,-26 -1,-53 -1,-79 2,-3 4,-6 7,-8 82,-1 165,-1 249,-1 1,27 3,55 5,83 8,22 17,64 37,73 0,17 62,38 75,40 22,0 44,0 67,0 20,-4 43,-12 60,-23 19,-16 30,-35 42,-55 3,-20 7,-40 7,-61 -3,-13 -5,-25 -7,-37 -3,-5 -6,-10 -8,-15 -6,-6 -11,-12 -16,-18 -16,-12 -31,-24 -46,-34 -31,-9 -62,-27 -94,-35 -7,-7 -20,-8 -29,-11 0,-4 -23,-9 -26,-9 -20,-9 -50,-15 -67,-26 -21,-4 -43,-16 -63,-23 -28,-20 -70,-32 -91,-61 -28,-23 -60,-59 -70,-95 -2,-3 -4,-6 -5,-9 -5,-15 -9,-29 -13,-44 -3,-20 -6,-39 -9,-59 0,-16 0,-30 0,-45 10,-25 4,-59 17,-85 9,-47 38,-91 72,-125 20,-16 39,-30 60,-45 27,-12 54,-26 82,-34 44,-15 91,-24 139,-24 52,-8 111,2 162,7 43,10 85,22 124,41 18,13 35,25 53,39 4,8 15,17 21,23 17,24 37,54 44,84 22,52 19,110 19,164 -84,1 -167,2 -251,3 -11,-11 -8,-25 -9,-40 -3,-15 -5,-28 -7,-42 -8,-16 -15,-31 -22,-47 -9,-8 -18,-15 -26,-22 -8,-4 -15,-7 -22,-10 -30,-4 -63,-3 -93,0 -22,10 -41,21 -60,34 -7,10 -14,20 -20,30 -3,12 -6,23 -8,36 1,12 2,24 3,36 1,7 3,14 5,21 4,7 8,14 12,22 19,23 42,35 67,49 44,15 92,37 137,46 40,14 80,28 121,43 20,10 47,19 63,34 8,5 17,10 25,15 5,4 10,8 16,12 0,1 0,2 0,4 1,0 2,0 3,0 12,15 24,29 37,44 20,0 41,93 47,106 4,39 7,79 5,119 -2,46 -14,94 -34,135 -23,32 -45,70 -78,92 0,12 -70,45 -87,51 -1,1 -2,2 -2,3 -27,7 -54,14 -80,22 -24,2 -46,4 -69,7 0,1 0,3 0,5 -44,0 -88,0 -132,0 0,-2 0,-4 0,-5 -4,0 -7,0 -10,0 0,1 0,3 0,5 -2,0 -4,0 -6,0z"/>
  <path class="fil2" d="M17777 7091c-1,-2 -2,-4 -2,-6 -54,-8 -121,-33 -151,-83 -1,0 -2,0 -3,0 -15,-20 -28,-42 -35,-67 -18,-22 -24,-78 -28,-102 0,-43 0,-86 0,-129 5,-23 6,-55 19,-74 9,-45 43,-96 81,-121 1,-2 2,-4 4,-6 38,-24 71,-43 113,-56 21,-8 42,-17 64,-20 6,-3 12,-5 18,-7 47,-9 93,-26 140,-35 10,-4 21,-7 31,-10 8,-4 16,-7 24,-10 11,-8 23,-16 34,-24 3,-5 6,-10 10,-15 5,-14 11,-24 13,-39 0,-20 8,-79 -8,-95 -2,-6 -4,-12 -5,-17 -2,-1 -3,-2 -4,-2 0,-7 -14,-21 -18,-27 -6,-4 -12,-8 -18,-12 -9,-4 -18,-7 -25,-10 -41,-7 -113,-13 -141,27 -21,13 -28,45 -36,66 -1,24 -2,49 -3,74 -85,0 -170,1 -256,2 -2,-1 -3,-2 -4,-2 0,-24 0,-49 1,-72 11,-81 31,-129 79,-193 12,-11 23,-22 36,-31 23,-16 44,-29 70,-37 16,-8 34,-14 51,-19 14,-4 27,-7 42,-10 25,-2 52,-4 78,-6 34,-11 80,0 117,0 19,2 38,4 58,6 16,3 31,6 47,10 15,5 33,8 45,17 45,11 100,51 122,93 26,26 29,78 42,112 1,15 3,29 5,44 5,243 5,489 6,731 3,30 6,70 22,96 1,8 11,24 2,30 -87,0 -174,1 -260,2 -3,-2 -6,-4 -9,-5 -5,-9 -10,-18 -14,-26 -4,-12 -7,-24 -10,-34 -3,-14 -6,-27 -8,-41 -4,1 -8,2 -11,4 -27,40 -60,82 -107,99 -32,16 -75,21 -111,25 0,1 0,2 0,4 -36,0 -72,0 -108,0zm133 -194c-13,-8 -31,-12 -40,-26 -38,-38 -38,-99 -38,-149 6,-59 29,-101 81,-130 10,-4 20,-8 29,-11 52,-21 111,-26 158,-61 2,1 5,2 8,3 0,79 0,160 0,240 -5,29 -18,53 -35,76 -14,12 -27,24 -41,35 -19,6 -36,13 -54,20 -23,1 -45,2 -68,3z"/>
  <path class="fil2" d="M10028 7066c-7,-2 -14,-4 -20,-5 0,-490 0,-980 0,-1469 3,-1 6,-2 10,-3 90,0 181,0 272,0 5,1 10,2 15,3 0,488 1,976 2,1465 -3,2 -5,5 -7,8 -91,0 -182,1 -272,2z"/>
  <path class="fil2" d="M10557 7066c-8,-1 -15,-3 -20,-8 -1,-365 -1,-729 -1,-1094 1,-4 2,-8 3,-11 89,-1 178,-1 267,-1 1,2 2,4 4,7 0,36 0,72 1,110 1,2 2,4 4,7 2,-8 6,-9 11,-14 13,-17 25,-33 38,-50 5,-4 10,-8 16,-12 0,-19 81,-52 94,-58 45,-13 92,-22 139,-22 24,3 50,6 75,10 11,3 23,6 34,10 9,4 19,8 28,12 20,17 45,29 63,49 5,6 10,12 16,19 9,16 18,32 27,49 4,11 8,22 12,32 5,29 11,58 13,88 0,289 0,579 0,868 -2,2 -4,4 -6,7 -92,-1 -184,-1 -275,-1 -2,-2 -4,-4 -5,-6 -1,-268 -1,-536 -1,-803 -4,-18 -8,-34 -12,-51 -4,-7 -8,-14 -12,-21 -2,0 -3,0 -4,0 -21,-28 -38,-30 -71,-39 -30,0 -56,2 -85,10 -7,4 -14,8 -21,12 -10,8 -19,16 -27,24 -8,12 -15,24 -22,37 -3,7 -6,15 -8,23 -3,18 -5,35 -7,54 -1,249 -1,497 -1,747 0,12 -15,13 -23,14 -82,0 -163,0 -245,1z"/>
  <path class="fil2" d="M13839 7066c-7,-1 -12,-5 -15,-11 0,-364 0,-727 0,-1091 0,-6 3,-10 6,-13 86,0 173,0 260,0 2,0 4,1 6,2 12,35 -14,84 8,117 3,0 19,-25 21,-29 3,0 17,-18 19,-22 6,-4 24,-22 27,-27 25,-16 51,-38 81,-46 45,-23 102,-26 152,-26 24,3 47,6 71,10 15,5 32,8 45,17 12,3 47,18 51,30 38,19 65,74 78,113 9,33 17,69 20,103 -1,289 -1,579 -1,868 -4,1 -7,2 -10,4 -89,0 -178,0 -267,0 -3,-2 -5,-4 -7,-5 -2,-265 -3,-531 -4,-795 -2,-15 -4,-29 -6,-44 -4,-9 -7,-18 -10,-26 -12,-18 -26,-29 -44,-40 -9,-3 -18,-6 -25,-9 -23,0 -45,0 -68,0 -12,3 -24,7 -34,11 -5,2 -10,5 -15,8 -22,19 -32,27 -45,51 -1,6 -4,15 -9,20 -5,24 -10,49 -14,74 -1,251 -1,501 -1,752 -2,1 -3,2 -4,4 -89,0 -178,0 -267,1z"/>
  <path class="fil2" d="M17042 7066c-2,-2 -3,-4 -4,-5 -1,-366 -1,-732 -1,-1098 1,-4 2,-8 4,-11 92,0 185,0 278,1 1,1 2,3 3,5 0,367 0,734 0,1101 -1,1 -2,2 -3,4 -93,1 -185,2 -277,3z"/>
  <path class="fil2" d="M17040 5837c-1,-4 -2,-8 -3,-12 0,-76 0,-152 0,-227 3,-7 3,-7 10,-10 88,0 176,0 264,0 3,1 6,2 9,3 0,79 1,159 2,239 -1,1 -2,3 -2,5 -94,0 -187,1 -280,2z"/>
  <path class="fil2" d="M11920 4878c-39,0 -78,-7 -117,-9 -13,-4 -49,-9 -57,-17 -5,-1 -10,-2 -15,-3 -43,-19 -103,-50 -129,-90 -17,-8 -24,-33 -37,-46 -18,-39 -35,-77 -45,-119 -11,-23 -12,-52 -17,-76 -3,-37 -6,-74 -8,-111 -1,-50 -2,-100 -2,-149 4,-60 8,-119 13,-179 5,-19 4,-45 14,-61 3,-16 9,-53 20,-64 5,-15 10,-28 16,-42 14,-23 27,-54 48,-70 1,-3 2,-6 3,-8 8,-4 17,-14 22,-21 18,-14 35,-27 53,-41 13,-8 25,-15 39,-22 13,-5 25,-10 39,-15 21,-6 41,-11 62,-16 21,-3 42,-6 64,-9 34,0 69,0 103,0 23,3 45,6 68,10 25,8 57,13 79,28 13,0 45,24 54,30 13,10 25,21 38,31 9,11 18,22 27,32 14,24 27,49 41,74 4,9 8,19 12,28 3,11 6,22 10,32 3,14 6,27 10,41 3,21 6,41 10,62 3,43 6,86 10,130 -1,42 -1,84 -1,126 -188,1 -376,3 -564,5 0,35 0,71 0,106 3,31 6,63 10,95 3,12 6,23 10,35 14,39 34,71 69,96 8,3 17,6 25,10 19,0 38,0 58,0 15,-7 29,-14 45,-20 6,-7 12,-13 18,-19 14,0 38,-77 40,-88 7,-23 10,-45 14,-69 2,-4 5,-8 8,-11 82,0 165,0 249,1 1,2 2,4 3,6 0,51 -11,103 -23,151 -9,21 -18,42 -25,64 -13,23 -28,48 -47,69 -11,3 -37,34 -47,43 -14,8 -27,16 -41,24 -8,2 -18,5 -23,10 -14,4 -26,8 -39,13 -15,3 -29,6 -44,10 -20,2 -39,4 -59,7 -20,0 -39,1 -59,2zm-130 -708c-4,-2 -7,-4 -10,-5 1,-89 3,-185 82,-242 27,-12 48,-15 79,-15 29,5 45,12 69,28 6,7 13,14 20,22 3,6 6,12 10,18 3,8 6,17 10,25 3,13 6,26 10,40 3,40 7,80 11,121 -1,1 -2,2 -2,4 -93,1 -186,2 -278,3z"/>
  <path class="fil2" d="M13516 4877c-17,-3 -33,-6 -49,-8 -28,-8 -87,-31 -101,-59 -28,-22 -42,-57 -59,-85 -3,-8 -6,-15 -8,-22 -4,-15 -8,-28 -12,-42 -4,-23 -7,-47 -10,-70 0,-49 -2,-110 17,-155 8,-49 43,-116 86,-137 0,-2 0,-4 0,-5 28,-14 57,-41 89,-47 40,-20 88,-33 132,-42 13,-6 32,-6 44,-14 33,-9 67,-18 100,-25 8,-4 16,-7 24,-10 16,-11 31,-22 45,-35 3,-6 6,-12 10,-18 3,-14 6,-26 10,-39 0,-15 0,-29 0,-44 -4,-14 -7,-27 -10,-41 -18,-30 -33,-54 -70,-65 -38,-3 -100,-15 -131,17 -33,11 -44,70 -51,97 -1,18 -2,35 -3,54 -85,0 -169,0 -254,0 -1,-22 -1,-43 -1,-64 3,-49 14,-98 36,-140 4,-7 8,-13 13,-19 32,-70 111,-105 178,-128 14,-4 28,-7 43,-10 24,-4 49,-7 73,-10 82,0 165,-1 246,22 18,6 35,13 54,20 29,14 53,32 77,52 11,15 22,29 33,45 4,14 12,34 20,46 3,13 6,25 10,39 3,20 6,40 10,61 1,240 2,480 3,721 3,43 12,85 29,124 -1,4 -2,8 -2,13 -87,0 -174,0 -261,1 -16,-5 -22,-31 -28,-46 -3,-21 -9,-44 -17,-64 -1,-1 -2,-1 -3,-1 -14,27 -41,62 -66,79 0,9 -49,26 -56,33 -17,4 -33,8 -49,13 -15,1 -39,-1 -51,7 -31,0 -63,0 -93,1zm134 -190c-24,0 -45,-17 -62,-31 -6,-8 -11,-16 -16,-24 -4,-9 -7,-18 -10,-26 -4,-19 -7,-37 -10,-56 0,-41 5,-76 23,-114 2,-5 5,-9 8,-13 10,-10 20,-20 29,-29 40,-24 80,-37 126,-46 10,-4 20,-7 29,-10 15,-8 39,-17 51,-28 4,-1 8,-1 12,-1 0,76 1,154 2,231 -4,14 -7,27 -10,42 -12,22 -25,42 -43,61 -17,10 -33,21 -50,31 -27,7 -53,12 -81,13z"/>
  <path class="fil2" d="M10016 4856c-3,-1 -6,-2 -8,-3 -1,-490 -2,-981 -2,-1470 3,-3 6,-5 9,-7 144,0 289,0 434,1 3,10 6,21 10,31 5,29 10,59 16,88 1,3 2,6 4,10 8,52 19,108 32,159 1,19 6,39 12,57 1,16 4,32 10,47 3,29 12,59 16,88 5,17 5,44 14,58 5,30 10,61 16,91 10,20 9,49 17,71 4,32 12,66 20,97 10,77 33,155 46,231 0,1 1,2 2,3 9,-23 16,-47 19,-72 4,-19 9,-37 14,-56 5,-29 10,-59 16,-88 7,-23 8,-49 17,-71 9,-71 33,-143 42,-214 5,-24 11,-49 17,-73 15,-79 35,-162 47,-240 1,-4 2,-7 4,-10 5,-36 13,-73 23,-109 4,-32 6,-71 25,-98 144,0 288,0 432,1 1,4 3,8 5,12 -1,487 -1,973 -1,1460 -2,2 -3,4 -4,6 -90,-1 -180,-1 -269,-1 -2,-382 -4,-764 -5,-1144 -1,-3 -2,-6 -3,-8 -21,62 -25,131 -45,194 -12,70 -34,141 -45,213 -12,24 -16,63 -20,90 -12,24 -17,59 -20,85 -15,50 -23,104 -36,154 -20,88 -39,176 -58,264 -6,22 -11,43 -16,65 -3,22 -10,71 -24,88 -74,0 -149,0 -222,0 -3,-1 -5,-2 -7,-2 -7,-21 -13,-43 -15,-65 -18,-63 -34,-132 -44,-197 -7,-15 -7,-35 -14,-51 -9,-42 -18,-83 -25,-124 -8,-16 -5,-38 -14,-52 -2,-13 -3,-35 -10,-46 -20,-107 -50,-212 -70,-319 -14,-28 -10,-68 -23,-95 -9,-57 -26,-114 -35,-170 -3,-5 -5,-10 -7,-15 -3,-10 -5,-19 -7,-27 -1,4 -2,8 -3,13 -1,383 -2,766 -3,1149 -87,1 -174,2 -261,3z"/>
  <path class="fil2" d="M12525 4856c-2,-3 -4,-5 -5,-7 0,-368 0,-736 0,-1104 1,-1 2,-2 3,-3 88,0 177,0 266,0 1,0 2,1 4,2 0,40 0,80 1,121 2,4 4,8 7,12 23,-39 50,-72 83,-104 13,-10 25,-19 39,-27 6,-4 13,-8 20,-12 8,-4 17,-8 25,-11 39,-7 96,-23 133,-4 0,87 0,175 1,263 -2,2 -4,4 -5,7 -36,-1 -72,-2 -109,-2 -18,3 -35,7 -52,11 -25,13 -56,23 -74,45 -8,7 -16,15 -23,23 -8,13 -15,25 -22,38 -4,11 -7,23 -10,34 -1,236 -2,472 -3,708 -1,2 -2,5 -3,8 -93,0 -186,1 -278,2z"/>
  <path class="fil2" d="M14329 4856c-4,-4 -8,-7 -12,-10 0,-487 0,-972 0,-1458 2,-8 2,-10 9,-13 90,0 181,0 272,0 3,4 6,8 9,13 -1,149 -1,298 -1,447 4,4 4,5 12,5 31,-57 91,-100 154,-114 11,-11 45,-11 61,-14 28,-1 57,-1 86,-1 20,3 39,6 60,10 37,12 71,27 102,52 0,1 0,2 0,3 3,2 6,4 10,7 0,1 0,2 0,3 21,14 37,47 46,69 7,7 8,23 13,32 3,15 6,30 10,46 1,17 3,33 5,50 -1,289 -1,578 -1,866 -1,1 -2,2 -3,4 -94,-1 -187,-1 -280,-1 -2,-273 -4,-546 -5,-819 -6,-19 -10,-39 -20,-57 -34,-44 -84,-47 -137,-41 -24,11 -53,17 -69,39 -9,0 -24,36 -28,46 -6,27 -12,55 -15,83 0,244 0,488 1,731 -2,6 -4,12 -6,18 -91,1 -182,2 -272,3z"/>
  <path class="fil2" d="M15195 2854c-16,-8 -38,0 -54,-6 -61,-5 -119,-21 -174,-48 -7,-4 -13,-7 -19,-10 0,-1 0,-2 0,-3 -48,-25 -76,-70 -100,-117 -5,-18 -10,-35 -14,-53 -2,-22 -4,-43 -5,-64 89,-1 179,-1 269,-1 8,5 11,32 14,42 3,6 7,13 11,20 4,4 8,8 12,13 11,7 22,15 33,23 6,3 12,6 19,10 38,7 80,9 117,-2 25,-11 54,-28 63,-56 8,-8 15,-32 20,-44 17,-70 10,-146 10,-217 -3,-1 -6,-2 -8,-3 -8,17 -27,31 -39,47 -12,9 -23,18 -35,27 -6,4 -12,8 -17,13 -15,7 -29,15 -44,23 -10,3 -19,6 -27,10 -19,3 -36,6 -54,10 -13,0 -25,0 -38,0 -22,-4 -43,-7 -65,-10 -14,-5 -27,-9 -41,-13 -34,-27 -81,-37 -106,-77 -2,0 -3,0 -4,0 0,-8 -28,-42 -29,-44 -11,-23 -22,-47 -31,-70 -18,-59 -30,-118 -34,-179 -3,-17 -5,-32 -7,-48 -1,-66 -2,-131 -2,-197 2,-49 10,-98 12,-146 7,-32 10,-79 26,-108 2,-9 4,-22 10,-27 8,-20 17,-39 25,-59 14,-21 28,-40 43,-60 9,0 24,-31 36,-31 12,-24 61,-37 82,-47 17,-4 33,-8 50,-12 39,0 80,-2 119,2 21,8 46,12 64,24 28,12 58,36 74,62 16,8 22,38 34,51 1,-2 3,-4 5,-6 0,-31 0,-63 1,-93 3,-12 5,-11 13,-16 80,0 161,0 242,0 5,0 10,1 16,2 1,2 2,4 4,6 -1,373 -1,746 -1,1119 -4,23 -7,47 -10,70 -9,25 -17,52 -24,78 -11,20 -22,39 -31,59 -10,11 -19,22 -27,33 -14,9 -31,28 -42,41 -36,21 -80,49 -122,55 -15,5 -28,9 -44,10 -25,13 -63,5 -89,14 -28,1 -57,2 -85,4zm26 -610c-20,-6 -41,-13 -55,-28 -19,-9 -35,-49 -43,-66 -4,-16 -8,-30 -12,-45 -4,-26 -7,-53 -10,-78 0,-67 0,-132 0,-198 3,-22 -1,-49 7,-69 3,-57 12,-116 44,-164 7,-7 14,-14 21,-20 8,-5 17,-9 25,-13 35,-6 62,-10 97,0 11,7 23,14 34,22 8,10 16,20 23,29 3,7 6,14 10,22 3,10 6,20 10,29 3,14 6,27 10,41 4,41 11,82 13,123 0,55 0,110 0,165 -5,35 -9,70 -13,107 -3,5 -5,10 -7,16 -2,15 -9,30 -13,44 -12,17 -24,33 -35,50 -10,7 -19,14 -27,21 -12,3 -24,6 -34,10 -16,0 -30,1 -45,2z"/>
  <path class="fil2" d="M11380 2499c-100,0 -189,-73 -217,-167 -16,-31 -18,-72 -24,-107 -1,-26 -1,-53 -1,-78 4,-37 7,-87 25,-120 23,-68 85,-128 153,-151 16,-8 32,-17 51,-20 59,-24 126,-37 188,-53 3,-2 7,-4 11,-5 26,-6 54,-15 77,-26 17,-12 33,-26 41,-46 3,-12 6,-23 10,-35 0,-15 0,-29 0,-44 -4,-15 -7,-29 -10,-44 -6,-10 -12,-20 -18,-29 -22,-22 -35,-29 -65,-39 -22,-1 -43,-1 -64,-1 -31,9 -68,17 -80,50 -1,0 -2,0 -3,0 -5,8 -9,17 -13,25 -4,13 -7,25 -10,38 -2,20 -3,39 -4,59 -83,0 -165,0 -248,0 -15,-7 -4,-88 -3,-108 3,-14 6,-27 10,-41 8,-20 16,-38 23,-57 13,-20 26,-39 40,-58 6,-7 13,-14 20,-20 18,-12 35,-29 57,-36 19,-19 70,-29 95,-36 17,-4 33,-7 50,-10 102,-6 210,-11 308,22 16,6 41,13 53,24 17,5 29,20 44,25 0,1 0,2 0,3 13,9 25,23 33,35 19,19 29,51 39,75 0,12 4,23 8,33 3,22 6,43 10,65 1,240 2,480 3,720 0,42 17,89 31,127 -2,2 -3,4 -4,7 -89,0 -178,0 -267,1 -14,-14 -16,-36 -24,-52 -1,-9 -8,-56 -17,-60 -9,9 -11,25 -22,30 -23,40 -70,72 -113,86 -24,5 -48,10 -71,15 -35,0 -70,1 -105,2zm132 -189c-22,-5 -39,-10 -57,-23 -46,-55 -49,-131 -32,-199 7,-15 14,-28 21,-42 8,-8 16,-16 24,-23 16,-9 27,-21 46,-25 23,-11 48,-19 73,-23 2,-2 4,-3 7,-4 17,-3 62,-16 71,-29 6,-4 12,-7 19,-10 3,-1 6,-1 9,-1 0,75 0,152 1,228 -4,22 -9,47 -20,67 -11,13 -21,25 -30,38 -14,10 -27,20 -41,29 -9,3 -18,6 -26,10 -22,2 -43,5 -64,8z"/>
  <path class="fil2" d="M12941 2499c-33,0 -73,-12 -103,-24 -9,-6 -18,-12 -26,-17 -13,-10 -29,-20 -36,-33 -25,-30 -43,-66 -58,-102 -4,-12 -7,-24 -10,-35 -4,-22 -7,-43 -10,-64 0,-84 1,-177 51,-250 0,-4 3,-6 6,-7 15,-29 53,-62 84,-73 0,-1 0,-2 0,-3 21,-8 41,-20 63,-25 2,-2 4,-4 7,-5 81,-23 164,-53 246,-69 16,-7 31,-14 47,-20 9,-8 18,-15 26,-22 6,-11 12,-22 19,-31 2,-9 4,-18 7,-26 0,-15 0,-28 1,-42 -4,-18 -8,-34 -11,-51 -4,-8 -8,-15 -11,-22 -1,0 -2,0 -3,0 -15,-25 -40,-36 -68,-45 -25,0 -50,0 -74,0 -28,8 -44,18 -65,38 -7,10 -13,20 -19,30 -4,11 -7,22 -10,32 -1,13 -1,63 -9,70 -83,-1 -165,-1 -248,-1 -1,-1 -2,-2 -3,-3 0,-35 -2,-72 4,-108 7,-32 21,-62 30,-91 3,-7 7,-14 11,-20 1,0 2,0 4,0 0,-7 4,-14 10,-17 9,-12 18,-23 26,-35 33,-25 70,-55 111,-65 16,-8 34,-9 50,-17 23,-4 45,-8 68,-12 65,0 131,-1 196,2 23,5 53,6 74,17 48,8 92,36 129,65 0,5 9,9 11,14 23,23 38,55 50,85 3,11 6,23 9,34 3,22 6,43 10,66 1,228 2,456 3,685 1,23 2,45 3,69 3,14 6,27 10,42 6,16 12,32 19,49 0,3 0,6 0,10 -90,1 -180,2 -270,3 -19,-19 -24,-53 -28,-77 -4,-11 -7,-22 -10,-32 -1,-1 -2,-2 -3,-2 -10,18 -24,37 -37,52 -7,3 -25,21 -26,27 -17,10 -33,20 -49,30 -30,9 -62,17 -93,22 -35,0 -70,1 -104,2zm130 -189c-9,-2 -18,-4 -26,-6 -26,-13 -51,-33 -57,-64 -17,-33 -15,-73 -15,-111 2,-14 5,-27 8,-41 3,-8 6,-16 10,-23 15,-23 27,-39 50,-55 23,-10 46,-20 70,-29 23,-7 47,-13 70,-19 15,-11 55,-33 71,-33 0,74 1,150 2,225 -4,15 -7,29 -10,45 -7,13 -14,25 -20,39 -6,4 -10,6 -10,14 -2,0 -3,0 -4,0 -15,23 -50,39 -74,49 -23,2 -44,5 -66,8z"/>
  <path class="fil2" d="M10014 2479c-3,-2 -5,-3 -7,-4 -1,-491 -1,-983 -1,-1473 203,0 405,0 609,0 0,1 0,3 0,5 16,4 41,2 52,13 37,9 70,29 103,46 0,3 57,48 59,49 2,6 3,8 8,10 14,21 27,41 42,63 9,20 20,39 25,60 1,3 3,6 5,10 7,32 18,67 22,100 1,29 11,89 3,117 -2,26 -4,53 -6,80 -8,25 -15,51 -22,76 -5,13 -14,39 -23,48 -14,31 -35,57 -56,84 -16,12 -31,24 -46,37 0,1 0,2 0,4 -13,8 -25,16 -38,24 -39,20 -80,37 -122,45 -4,1 -7,2 -10,4 -21,3 -40,6 -60,10 -80,2 -161,4 -241,6 -1,2 -2,5 -2,8 -2,192 -3,384 -4,576 -2,1 -4,2 -5,3 -96,0 -191,0 -286,1zm301 -810c-3,-3 -5,-6 -7,-8 0,-144 0,-288 0,-432 2,-2 4,-4 6,-6 60,0 123,-3 182,3 11,3 23,6 34,10 6,3 13,6 20,10 10,8 21,16 31,24 7,10 15,20 23,30 4,11 8,22 13,33 21,41 19,97 19,142 -4,19 -7,38 -10,58 -4,11 -8,22 -12,33 -10,14 -20,28 -29,43 -17,15 -37,29 -57,40 -15,4 -29,8 -43,12 -57,2 -114,4 -169,7z"/>
  <path class="fil2" d="M12217 2479c-3,-2 -6,-4 -9,-5 -1,-491 -1,-982 -1,-1472 96,0 192,0 289,0 -1,490 -1,981 -1,1472 -3,1 -5,2 -7,3 -91,0 -181,1 -271,2z"/>
  <path class="fil2" d="M13769 2479c-1,-2 -2,-3 -3,-4 0,-368 0,-736 0,-1104 1,-3 2,-5 3,-7 87,-1 174,-1 261,-1 2,0 4,1 7,2 1,2 2,4 3,7 0,15 -4,112 6,117 8,-14 17,-26 25,-39 26,-31 67,-72 108,-83 23,-15 52,-17 77,-26 60,-5 127,-8 185,10 16,7 38,12 51,24 22,7 39,32 57,47 10,15 20,29 29,45 3,8 6,16 10,24 3,10 6,21 10,31 4,21 8,42 12,64 0,297 0,593 0,891 -1,0 -2,1 -2,2 -93,0 -186,0 -278,0 -2,-1 -3,-2 -4,-2 -1,-263 -2,-526 -2,-788 -3,-18 -6,-35 -8,-52 -6,-19 -14,-35 -25,-51 -45,-33 -93,-30 -146,-20 -9,5 -18,10 -26,15 -28,14 -44,49 -55,77 -4,23 -8,45 -11,69 -1,250 -1,499 -1,749 -2,1 -3,2 -4,3 -93,0 -186,1 -279,2z"/>
 </g>
</svg>
