<svg height="110" viewBox="0 0 239 110" width="239" xmlns="http://www.w3.org/2000/svg" xmlns:xlink="http://www.w3.org/1999/xlink"><clipPath id="a"><path d="m996 5165h239v110h-239z"/></clipPath><g clip-path="url(#a)" fill="#263238" transform="translate(-996 -5165)"><path d="m173.152 34.962 16.927-20.412h-8.309l-15.176 18.3v-.117l-6.877 8.338-1.5 1.814c-.043.072-.084.146-.128.219l-2.578 3.108a14.264 14.264 0 0 1 -1.516 1.2 13.9 13.9 0 0 1 -7.905 2.451v.106a13.919 13.919 0 0 1 -5.488-1.127 14.274 14.274 0 0 1 -6.226-5.207 14.477 14.477 0 0 1 3.824-19.935 13.984 13.984 0 0 1 16.2.273l3.729-5.225a20.261 20.261 0 0 0 -20-2.315 20.645 20.645 0 0 0 -9.019 7.538 20.964 20.964 0 0 0 -3.5 11.642c0 .071.006.143.006.215h-.116a14.414 14.414 0 0 1 -6.238 11.91 13.986 13.986 0 0 1 -13.413 1.323 14.268 14.268 0 0 1 -6.227-5.206 14.42 14.42 0 0 1 -1.7-3.5c-.263-.131-.547-.278-.848-.441a20.554 20.554 0 0 1 -4.754-3.446c-.624-.634-1.183-1.26-1.685-1.866.033.4.052.813.052 1.228a14.409 14.409 0 0 1 -6.238 11.91 13.985 13.985 0 0 1 -13.412 1.323 14.251 14.251 0 0 1 -6.226-5.206 14.478 14.478 0 0 1 3.824-19.938 13.991 13.991 0 0 1 13.412-1.323 14.264 14.264 0 0 1 6.232 5.204c.035.052.067.1.1.158h.01l.01.024s0 .01.006.015c.059.092.113.187.17.279.143.326.427.943.876 1.748l.142.25c.037.089.078.177.112.267a25.061 25.061 0 0 0 1.6 2.333c.036.047.069.092.105.139a22.583 22.583 0 0 0 2.02 2.3l.013.014.018.018c.122.121.246.241.374.36l.15.138a18.958 18.958 0 0 0 2.745 2.116 16.778 16.778 0 0 0 3.9 1.818 16.447 16.447 0 0 0 4.714.759h.431a21.537 21.537 0 0 0 7.312-1.2 18.146 18.146 0 0 0 4.309-2.225 19.026 19.026 0 0 0 4.55-4.556 22.861 22.861 0 0 0 2.613-4.861 9.54 9.54 0 0 0 .707-3.488 7.616 7.616 0 0 0 -.226-1.858 7.361 7.361 0 0 0 -1.221-2.581 8.275 8.275 0 0 0 -2.3-2.1 7.5 7.5 0 0 0 -1.319-.667l-.011.036a20.263 20.263 0 0 0 -16.819-.394 20.529 20.529 0 0 0 -6.395 4.341v-19.988h-6.352v17.413c.388.377.792.787 1.211 1.234a27.23 27.23 0 0 1 3.564 4.9 27.422 27.422 0 0 0 2.818 4.181c.169.194.348.384.535.574a14.378 14.378 0 0 1 4.7-5.384 13.98 13.98 0 0 1 14.959-.541l.025-.045a1.572 1.572 0 0 1 .329.34.812.812 0 0 1 .109.217 1 1 0 0 1 .044.318 3.006 3.006 0 0 1 -.252 1.091 16.61 16.61 0 0 1 -1.6 3.1 13.481 13.481 0 0 1 -1.777 2.161 11.685 11.685 0 0 1 -3.782 2.491 14.853 14.853 0 0 1 -5.719 1.036h-.326a10.283 10.283 0 0 1 -2.632-.38 10.813 10.813 0 0 1 -3.692-1.9 13.158 13.158 0 0 1 -1.062-.92.017.017 0 0 1 0-.009c-.161-.15-.314-.3-.465-.454a17.5 17.5 0 0 1 -2.124-2.732c-.4-.638-.816-1.17-1-1.548-.093-.19-.279-.485-.279-.485a26.661 26.661 0 0 0 -3.519-4.9c-.021-.022-.041-.041-.06-.063a20.687 20.687 0 0 0 -2.61-2.128 20.268 20.268 0 0 0 -19.447-1.919 20.646 20.646 0 0 0 -9.018 7.538 20.986 20.986 0 0 0 5.534 28.9 20.259 20.259 0 0 0 19.443 1.919 20.644 20.644 0 0 0 9.018-7.537c.138-.21.274-.42.405-.635a20.786 20.786 0 0 0 5.936 6.253 20.26 20.26 0 0 0 19.448 1.919 20.641 20.641 0 0 0 9.016-7.537q.231-.345.445-.7a20.763 20.763 0 0 0 5.846 6.1 20.259 20.259 0 0 0 19.445 1.92 20.468 20.468 0 0 0 6.146-4.094v5.811h6.357v-13.631l2.386-2.875 13.053 16.506h8.152zm-6.559-33.967h-6.357v34.514a14.422 14.422 0 0 1 -.26 2.73l6.617-8.022z" transform="translate(1032.838 5191.651)"/><path d="m36.426 15.811v16.916c0 7.88-4.765 12.639-11.988 12.639s-12.3-4.759-12.3-12.639v-31.756h-12.138v31.756c0 14.434 9.528 23.407 24.438 23.407 14.832 0 24.131-8.973 24.131-23.407v-31.756h-.213a17.557 17.557 0 0 0 -11.93 14.84z" transform="translate(1008.869 5191.64)"/><path d="m41.362.971h-.209v54.618h12.147v-39.767c-.118-6.069-5.53-12.763-11.938-14.851" transform="translate(1026.47 5191.64)"/><path d="m31.3 15.811v16.916.032c0 .168.012.335.012.5a22.089 22.089 0 0 1 -19.331 22.057 31.828 31.828 0 0 0 7.333.818c14.832 0 24.131-8.973 24.131-23.407v-31.756h-.213a17.557 17.557 0 0 0 -11.932 14.84" transform="translate(1013.993 5191.64)"/><path d="m12.142 15.839v-14.868h-12.142a17.866 17.866 0 0 1 12.142 14.868z" transform="translate(1008.869 5191.64)"/><path d="m41.154 27.89v16.186h11.994a18.274 18.274 0 0 1 -11.994-16.186z" transform="translate(1026.47 5203.153)"/></g></svg>