<svg height="110" viewBox="0 0 239 110" width="239" xmlns="http://www.w3.org/2000/svg" xmlns:xlink="http://www.w3.org/1999/xlink"><clipPath id="a"><path d="m1306 5165h239v110h-239z"/></clipPath><g clip-path="url(#a)" transform="translate(-1306 -5165)"><g fill="#263238"><path d="m265.208 163.749v9.1a8.035 8.035 0 0 1 -1.772 1.347 9.8 9.8 0 0 1 -2 .844 11.9 11.9 0 0 1 -2.175.423 22.256 22.256 0 0 1 -2.281.115 10.816 10.816 0 0 1 -4.316-.861 11.423 11.423 0 0 1 -3.535-2.368 11.142 11.142 0 0 1 -2.386-3.517 10.764 10.764 0 0 1 -.871-4.321 10.93 10.93 0 0 1 1.5-5.592 11.354 11.354 0 0 1 1.752-2.253 11.1 11.1 0 0 1 4.907-2.841 10.945 10.945 0 0 1 2.949-.393 10.362 10.362 0 0 1 2.378.273 11.049 11.049 0 0 1 2.253.789 12.794 12.794 0 0 1 2.06 1.252 13.5 13.5 0 0 1 1.835 1.637l-.911.924a2.793 2.793 0 0 1 -3.59.381 7.337 7.337 0 0 0 -1.872-.926 6.834 6.834 0 0 0 -2.143-.333 6.917 6.917 0 0 0 -2.754.561 7.215 7.215 0 0 0 -3.828 3.763 6.787 6.787 0 0 0 -.568 2.754 6.669 6.669 0 0 0 .591 2.8 7.357 7.357 0 0 0 6.7 4.313 11.8 11.8 0 0 0 1.439-.123 11.077 11.077 0 0 0 1.334-.285 5.209 5.209 0 0 0 1.3-.561v-3.052l-1.252-.023a2.588 2.588 0 0 1 -1.089-.235 1.667 1.667 0 0 1 -.766-.766 3.455 3.455 0 0 1 -.288-1.6v-1.214z" transform="translate(1117.557 5056.08)"/><path d="m353.18 176.054h-3.97v-21.716h8.153a6.722 6.722 0 0 1 2.859.591 6.882 6.882 0 0 1 2.188 1.57 7.084 7.084 0 0 1 1.409 2.218 6.832 6.832 0 0 1 .25 4.426 6.631 6.631 0 0 1 -.751 1.712 7.155 7.155 0 0 1 -2.9 2.621q1.592 2.17 3.167 4.3t3.184 4.281h-3.119a2.43 2.43 0 0 1 -.751-.138 3.678 3.678 0 0 1 -.886-.431 6.6 6.6 0 0 1 -.956-.751 7.425 7.425 0 0 1 -.961-1.154l-3.955-5.335h-2.961zm4.306-11.806a2.594 2.594 0 0 0 1.1-.25 2.869 2.869 0 0 0 .911-.653 3.114 3.114 0 0 0 .613-.946 2.839 2.839 0 0 0 .228-1.111 2.908 2.908 0 0 0 -.228-1.132 3.177 3.177 0 0 0 -.613-.946 2.9 2.9 0 0 0 -.911-.651 2.556 2.556 0 0 0 -1.1-.25h-4.306v5.925z" transform="translate(1040.086 5055.4)"/><path d="m432.8 154.34h3.592l9.488 21.717h-2.471a2.854 2.854 0 0 1 -1.545-.438 2.719 2.719 0 0 1 -1.046-1.214l-1.289-2.939h-9.866l-1.272 2.939a2.423 2.423 0 0 1 -.426.668 2.945 2.945 0 0 1 -.621.521 2.909 2.909 0 0 1 -.751.34 2.737 2.737 0 0 1 -.811.123h-2.472zm-1.379 13.138h6.351l-2.834-6.576a3.732 3.732 0 0 1 -.265-.834c-.045-.25-.075-.446-.085-.576a5.011 5.011 0 0 1 -.09.583 4.4 4.4 0 0 1 -.25.826z" transform="translate(984.536 5055.397)"/><path d="m520.865 176.054h-3.99v-9.2a1.753 1.753 0 0 0 -.21-.864 9.4 9.4 0 0 0 -.561-.864l-7.973-10.789h3.047a3.8 3.8 0 0 1 1.765.393 3.363 3.363 0 0 1 1.267 1.137l4.288 5.805a1.691 1.691 0 0 1 .275.561c.05.19.078.313.088.363a2.264 2.264 0 0 1 .085-.355 1.649 1.649 0 0 1 .3-.568l4.273-5.79a3.255 3.255 0 0 1 1.267-1.159 3.857 3.857 0 0 1 1.765-.386h3.082l-7.993 10.8c-.12.163-.228.31-.315.448a4.439 4.439 0 0 0 -.25.4 1.784 1.784 0 0 0 -.158.411 1.752 1.752 0 0 0 -.053.453z" transform="translate(920.949 5055.4)"/><path d="m624.483 164.88v8.364a6.964 6.964 0 0 1 -1.635 1.132 9.882 9.882 0 0 1 -1.91.713 13.269 13.269 0 0 1 -2.108.363c-.726.065-1.464.1-2.21.1a10.741 10.741 0 0 1 -4.321-.874 11.265 11.265 0 0 1 -3.53-2.378 11.085 11.085 0 0 1 .01-15.709 11.117 11.117 0 0 1 12.086-2.423 11.168 11.168 0 0 1 3.477 2.3l-.15.138a2.076 2.076 0 0 1 -.613.431 1.82 1.82 0 0 1 -.736.143 1.672 1.672 0 0 1 -.971-.3 9.543 9.543 0 0 0 -2.438-1.2 8.957 8.957 0 0 0 -2.8-.431 9.1 9.1 0 0 0 -2.448.325 8.846 8.846 0 0 0 -2.2.931 9.594 9.594 0 0 0 -1.867 1.439 9.01 9.01 0 0 0 -1.439 1.865 9.514 9.514 0 0 0 -.931 2.205 8.892 8.892 0 0 0 -.333 2.446 8.725 8.725 0 0 0 .34 2.448 9.28 9.28 0 0 0 2.441 4.068 9.646 9.646 0 0 0 1.9 1.442 9.327 9.327 0 0 0 2.238.931 9.232 9.232 0 0 0 2.461.325 11.105 11.105 0 0 0 3.047-.416 10.677 10.677 0 0 0 2.789-1.252v-5.222h-1.925a1.792 1.792 0 0 1 -1.327-.553 1.819 1.819 0 0 1 -.363-.583 1.941 1.941 0 0 1 -.128-.7v-.06z" transform="translate(847.939 5056.147)"/><path d="m709.265 176.056h-1.9v-21.717h7.608a5.956 5.956 0 0 1 2.381.476 6.166 6.166 0 0 1 1.93 1.3 6.093 6.093 0 0 1 1.3 1.933 5.9 5.9 0 0 1 .478 2.363 6.313 6.313 0 0 1 -.38 2.168 6.583 6.583 0 0 1 -1.044 1.88 5.654 5.654 0 0 1 -1.607 1.372 5.215 5.215 0 0 1 -2.045.658l7.182 9.563h-.894a2.552 2.552 0 0 1 -2.3-1.149l-6.321-8.414h-4.393zm0-19.824v8.368h5.713a4.111 4.111 0 0 0 1.63-.325 4.213 4.213 0 0 0 1.334-.9 4.286 4.286 0 0 0 .9-1.332 4.021 4.021 0 0 0 .333-1.63 3.966 3.966 0 0 0 -.333-1.62 4.271 4.271 0 0 0 -2.235-2.23 4.03 4.03 0 0 0 -1.63-.333z" transform="translate(771.586 5055.398)"/><path d="m792.565 176.057h-1.9v-21.717h1.9z" transform="translate(709.139 5055.397)"/><path d="m827.48 176.056v-21.716h7.988a10.682 10.682 0 0 1 5.475 1.484 11.075 11.075 0 0 1 3.905 3.9 10.8 10.8 0 0 1 0 10.957 11.144 11.144 0 0 1 -1.7 2.2 10.824 10.824 0 0 1 -4.789 2.786 10.6 10.6 0 0 1 -2.886.388zm7.988-1.9a8.731 8.731 0 0 0 3.5-.7 9.164 9.164 0 0 0 2.849-1.918 8.937 8.937 0 0 0 1.925-9.821 9.034 9.034 0 0 0 -1.925-2.856 9.142 9.142 0 0 0 -2.849-1.925 8.732 8.732 0 0 0 -3.5-.706h-6.093v17.929z" transform="translate(681.543 5055.398)"/><path d="m927.926 156.45c-.233-.16-.438-.313-.613-.453a3.1 3.1 0 0 0 -1.252-.606 4.506 4.506 0 0 0 -1-.09 4.7 4.7 0 0 0 -1.667.3 4.78 4.78 0 0 0 -1.387.8 3.81 3.81 0 0 0 -.946 1.167 2.99 2.99 0 0 0 -.348 1.409 3.756 3.756 0 0 0 .22 1.394 2.348 2.348 0 0 0 .751.961 5.694 5.694 0 0 0 1.379.774q.856.355 2.115.8.668.25 1.252.456c.383.14.751.285 1.091.431a10.116 10.116 0 0 1 .961.468 7.155 7.155 0 0 1 .856.568 4.428 4.428 0 0 1 1.5 2 7.508 7.508 0 0 1 .431 2.593 5.72 5.72 0 0 1 -.561 2.561 5.85 5.85 0 0 1 -1.515 1.933 6.758 6.758 0 0 1 -2.235 1.219 8.6 8.6 0 0 1 -2.746.423 7.031 7.031 0 0 1 -4.774-1.682 8.279 8.279 0 0 1 -.9-.961 7.758 7.758 0 0 1 -.6-.874l.225-.135a1.94 1.94 0 0 1 .956-.288 2.448 2.448 0 0 1 .7.1 1.392 1.392 0 0 1 .593.358 7.508 7.508 0 0 0 1.129.886 4.659 4.659 0 0 0 .954.456 3.721 3.721 0 0 0 .864.173q.416.03.856.045a6.409 6.409 0 0 0 1.825-.205 4.886 4.886 0 0 0 1.652-.751 4.1 4.1 0 0 0 1.2-1.327 3.782 3.782 0 0 0 .463-1.923 4.639 4.639 0 0 0 -.363-2 3.255 3.255 0 0 0 -1-1.219 5.9 5.9 0 0 0 -1.525-.781q-.879-.313-1.9-.706c-.859-.343-1.642-.663-2.348-.954a7.48 7.48 0 0 1 -1.81-1.039 4.115 4.115 0 0 1 -1.169-1.477 5.33 5.33 0 0 1 -.416-2.273 4.756 4.756 0 0 1 .561-2.3 5.973 5.973 0 0 1 1.447-1.767 6.69 6.69 0 0 1 2-1.137 6.619 6.619 0 0 1 2.235-.4 5.655 5.655 0 0 1 1.737.25 6.685 6.685 0 0 1 1.422.636 7 7 0 0 1 1.169.871q.521.486.961.956l-.471.333a1.638 1.638 0 0 1 -.416.22 1.73 1.73 0 0 1 -.571.083 1.752 1.752 0 0 1 -.979-.258z" transform="translate(613.729 5056.133)"/><circle cx="22.014" cy="22.014" r="22.014" transform="matrix(.12689149 -.9919166 .9919166 .12689149 1306 5239.518)"/></g><path d="m79.339 160.828v2.11h4.621v3.53h-4.589v-.013c-.123 0-.25.013-.373.013a5.082 5.082 0 0 1 -1.985-.4 5.152 5.152 0 0 1 -2.253-1.847 5.1 5.1 0 0 1 7.457-6.792h9.013c-.115-.36-.25-.716-.393-1.061a12.855 12.855 0 1 0 -11.837 17.855h12.763v-13.4zm4.621 11.265h-4.26c-.16 0-.325.018-.5.02h-.37a10.742 10.742 0 1 1 9.027-16.79h-4.948a7.21 7.21 0 1 0 -3.909 13.268h4.96zm5.713.02h-3.6l.02-.013h-.02v-3.5h3.6zm0-5.64h-3.6v-3.53h3.6z" fill="#262626" transform="translate(1252.295 5059.766)"/><path d="m76.922 158.168v2.11h4.624v3.53h-4.594v-.008c-.123 0-.25.013-.37.013a5.105 5.105 0 1 1 1.983-9.813 5.134 5.134 0 0 1 1.252.751h9.012c-.118-.36-.25-.716-.393-1.061a12.855 12.855 0 1 0 -11.858 17.876h12.766v-13.41zm4.624 11.265h-4.256c-.163 0-.325.018-.5.02h-.363a10.742 10.742 0 1 1 9.012-16.79h-4.947a7.21 7.21 0 1 0 -3.915 13.253h4.964zm5.713.02h-3.6l.018-.013h-.018v-3.525h3.6zm0-5.64h-3.6v-3.53h3.6z" fill="#fff" transform="translate(1254.088 5061.761)"/><path d="m134.85 226.01h2.113v1h-2.113z" fill="#999" transform="translate(1200.784 5001.669)"/><path d="m128.02 203.473h1.71v1h2.11v-1h1.55z" fill="#999" transform="translate(1205.904 5018.566)"/></g></svg>