<svg height="110" viewBox="0 0 239 110" width="239" xmlns="http://www.w3.org/2000/svg" xmlns:xlink="http://www.w3.org/1999/xlink"><clipPath id="a"><path d="m375 5165h239v110h-239z"/></clipPath><g clip-path="url(#a)" fill="#263238" transform="translate(-375 -5165)"><path d="m54.731 89.376a6.406 6.406 0 0 0 1.514.568 19.658 19.658 0 0 0 8.7 2.082 19.113 19.113 0 0 0 .194-38.226c-6.812 0-13.057 6.623-17.22 10.786l-5.109 5.114-8.7-8.7c-3.41-3.415-7.196-7.2-13.819-7.2-10.791.189-19.491 8.894-19.491 19.3a19.267 19.267 0 0 0 18.923 19.114 17.89 17.89 0 0 0 8.7-2.082c2.46-1.514 9.083-5.488 12.868-9.272l.946-.946 4.731 4.542a27.876 27.876 0 0 0 7.763 4.92zm-3.031-18.545 2.082-2.082c3.028-3.028 7.759-7.569 11.165-7.569 6.434 0 12.111 6.055 12.111 12.489a12.322 12.322 0 0 1 -12.108 12.111 19.328 19.328 0 0 1 -7.569-2.271 46.047 46.047 0 0 1 -10.029-8.515zm-15.139 4.92a62.115 62.115 0 0 1 -10.972 7.949 11.4 11.4 0 0 1 -5.489 1.513 12.111 12.111 0 0 1 0-24.222c3.785 0 5.488 1.7 8.7 5.109l8.9 8.7z" transform="translate(374.2 5147.2)"/><path d="m48.468 81.632a2.825 2.825 0 0 1 -.568-1.892v-19.491a2.194 2.194 0 0 1 .757-1.892 2.429 2.429 0 0 1 1.892-.757 2.194 2.194 0 0 1 1.892.757 2.43 2.43 0 0 1 .757 1.892v17.6h8.894c1.7 0 2.46.757 2.46 2.271s-.757 2.271-2.46 2.271h-11.732a3.557 3.557 0 0 1 -1.892-.759z" transform="translate(416.228 5150.591)"/><path d="m58.59 61.719a3.05 3.05 0 0 1 -.757-1.325 2.135 2.135 0 0 1 .568-2.082 2.548 2.548 0 0 1 1.7-.946 3.225 3.225 0 0 1 1.892 0 2.723 2.723 0 0 1 1.7 3.217c-.75 2.082-3.593 2.461-5.103 1.136zm.189 20.437a2.194 2.194 0 0 1 -.757-1.892v-12.679a2.194 2.194 0 0 1 .757-1.892 3.438 3.438 0 0 1 3.785 0 1.993 1.993 0 0 1 .757 1.892v12.679a2.194 2.194 0 0 1 -.757 1.892 3.479 3.479 0 0 1 -3.028.378.983.983 0 0 1 -.756-.378z" transform="translate(425.029 5150.256)"/><path d="m78.128 63.054a8.633 8.633 0 0 1 1.514 5.488v7.948a2.429 2.429 0 0 1 -.757 1.892 3.2 3.2 0 0 1 -1.892.568 2.825 2.825 0 0 1 -1.892-.568 2.522 2.522 0 0 1 -.757-1.892v-7.759a3.9 3.9 0 0 0 -.568-2.46 2.358 2.358 0 0 0 -2.082-.757 3.436 3.436 0 0 0 -2.649 1.135 4.648 4.648 0 0 0 -.946 2.838v7.38a2.429 2.429 0 0 1 -.757 1.892 3.438 3.438 0 0 1 -3.785 0 1.993 1.993 0 0 1 -.757-1.892v-12.678a1.845 1.845 0 0 1 .757-1.7 3.2 3.2 0 0 1 1.892-.568 2.313 2.313 0 0 1 1.7.568 2.4 2.4 0 0 1 .757 1.7v.568a.661.661 0 0 1 .189-.378l.382-.379.757-.757a8.156 8.156 0 0 1 4.542-1.514c1.703-.189 3.406 0 4.352 1.325z" transform="translate(429.524 5154.22)"/><path d="m89.1 74.457c.189.189.189.189.189.378a2.239 2.239 0 0 1 -.189 1.892c-.378.757-.946.946-1.514 1.325a10.669 10.669 0 0 1 -2.271.757 19.683 19.683 0 0 1 -2.838.378 10.476 10.476 0 0 1 -4.92-1.135 8.257 8.257 0 0 1 -3.217-3.028 9.218 9.218 0 0 1 -1.14-4.73 8.99 8.99 0 0 1 1.135-4.542 8.058 8.058 0 0 1 7.38-4.352 10.313 10.313 0 0 1 4.163.946 7.587 7.587 0 0 1 2.649 2.838 10.513 10.513 0 0 1 .946 4.352 1.6 1.6 0 0 1 -.378 1.135 1.445 1.445 0 0 1 -.946.378h-9.649a4.989 4.989 0 0 0 1.325 3.028 3.716 3.716 0 0 0 2.838.946 5.834 5.834 0 0 0 1.892-.189l1.7-.568a5.526 5.526 0 0 1 1.7-.378 1.138 1.138 0 0 1 .757.189.407.407 0 0 1 .388.38zm-9.462-8.515a4.955 4.955 0 0 0 -1.138 2.838h6.623a4.648 4.648 0 0 0 -.946-2.838 3.2 3.2 0 0 0 -4.542 0z" transform="translate(438.804 5153.981)"/><path d="m84.557 81.822a2.194 2.194 0 0 1 -.757-1.892v-19.681a2.194 2.194 0 0 1 .757-1.892 2.429 2.429 0 0 1 1.892-.757 2.194 2.194 0 0 1 1.892.757 2.429 2.429 0 0 1 .757 1.892v19.491a3.651 3.651 0 0 1 -.568 1.892 3.4 3.4 0 0 1 -3.028.757 4.136 4.136 0 0 1 -.945-.567z" transform="translate(448.262 5150.591)"/><path d="m92.663 78.142a7.763 7.763 0 0 1 -3.028-3.028 9.218 9.218 0 0 1 -1.135-4.731 9.717 9.717 0 0 1 1.135-4.731 8.744 8.744 0 0 1 3.217-3.217 9.717 9.717 0 0 1 4.731-1.135 14.607 14.607 0 0 1 2.838.378 7.172 7.172 0 0 1 2.46 1.135 2.465 2.465 0 0 1 .757 3.406c-.189.189-.189.378-.568.568s-.568 0-.946 0a10.667 10.667 0 0 1 -2.271-.757 5.553 5.553 0 0 0 -1.892-.568 4.938 4.938 0 0 0 -3.217 1.325c-.757.757-.946 2.082-.946 3.6a6.268 6.268 0 0 0 .946 3.6 4.117 4.117 0 0 0 3.028 1.313 6.723 6.723 0 0 0 1.892-.378c.568-.189.946-.378 1.514-.568a1.945 1.945 0 0 1 2.271.189 2.039 2.039 0 0 1 .378 1.514 1.9 1.9 0 0 1 -1.135 1.892 18.451 18.451 0 0 1 -2.649 1.135 8.852 8.852 0 0 1 -3.028.378 11.645 11.645 0 0 1 -4.352-1.32z" transform="translate(452.456 5153.892)"/><path d="m101.952 78.052a8.257 8.257 0 0 1 -3.217-3.028 10.424 10.424 0 0 1 0-9.462 7.148 7.148 0 0 1 3.217-3.028 10.424 10.424 0 0 1 9.462 0 8.257 8.257 0 0 1 3.217 3.028 10.424 10.424 0 0 1 0 9.462 7.148 7.148 0 0 1 -3.217 3.028 10.424 10.424 0 0 1 -9.462 0zm8.515-7.759a5.848 5.848 0 0 0 -.946-3.6 3.321 3.321 0 0 0 -2.838-1.135c-2.46 0-3.785 1.7-3.785 4.92s1.325 4.92 3.785 4.92c2.649-.184 3.785-1.887 3.785-5.104z" transform="translate(460.576 5153.981)"/><path d="m124.128 63.084a8.633 8.633 0 0 1 1.514 5.488v7.948a2.429 2.429 0 0 1 -.757 1.892 3.2 3.2 0 0 1 -1.892.568 2.825 2.825 0 0 1 -1.892-.568 2.522 2.522 0 0 1 -.757-1.892v-7.759a3.9 3.9 0 0 0 -.568-2.46 2.358 2.358 0 0 0 -2.082-.757 3.436 3.436 0 0 0 -2.649 1.135 4.648 4.648 0 0 0 -.946 2.838v7.383a2.429 2.429 0 0 1 -.757 1.892 3.438 3.438 0 0 1 -3.785 0 1.993 1.993 0 0 1 -.757-1.892v-12.68a1.845 1.845 0 0 1 .757-1.7 3.2 3.2 0 0 1 1.892-.568 2.313 2.313 0 0 1 1.7.568 2.4 2.4 0 0 1 .757 1.7v.568c0-.378.568-.946.946-1.135a3.959 3.959 0 0 1 1.135-.757c2.275-1.326 6.248-2.082 8.141.188z" transform="translate(470.57 5154.189)"/><path d="m123.085 78.575c-.189 0-.568-.189-.757-.189a7 7 0 0 1 -2.082-.946c-.378-.189-.568-.568-.757-.757a2.4 2.4 0 0 1 -.189-1.135 2.735 2.735 0 0 1 .378-1.325 1.636 1.636 0 0 1 1.135-.568 1.706 1.706 0 0 1 .946.189c.378.189.568.189.946.378a7.908 7.908 0 0 0 1.892.757 7.8 7.8 0 0 0 2.271.189 4.748 4.748 0 0 0 1.892-.378 1.257 1.257 0 0 0 .757-.946.983.983 0 0 0 -.378-.757 3.081 3.081 0 0 0 -1.139-.567 16.222 16.222 0 0 0 -2.46-.568 10.346 10.346 0 0 1 -4.542-1.7 3.9 3.9 0 0 1 -1.325-3.217 4.9 4.9 0 0 1 3.227-4.545 7.422 7.422 0 0 1 3.406-.757 8.429 8.429 0 0 1 4.352.568c1.325.378 2.838 1.325 2.838 2.838a2.735 2.735 0 0 1 -.378 1.325 1.636 1.636 0 0 1 -1.135.568c-1.135 0-2.082-.757-3.217-1.135a5.835 5.835 0 0 0 -3.6 0c-.378.189-.757.378-.757.757a.691.691 0 0 0 .378.946c.378.378.946.378 1.514.568s1.135.189 1.7.378a20.4 20.4 0 0 1 3.6 1.135 3.385 3.385 0 0 1 1.892 1.7 4.734 4.734 0 0 1 .568 2.46 4.685 4.685 0 0 1 -2.082 3.974 7.493 7.493 0 0 1 -3.6 1.325 16.873 16.873 0 0 1 -5.294-.565z" transform="translate(479.94 5154.216)"/></g></svg>