<svg height="110" viewBox="0 0 239 110" width="239" xmlns="http://www.w3.org/2000/svg" xmlns:xlink="http://www.w3.org/1999/xlink"><clipPath id="a"><path d="m685 5165h239v110h-239z"/></clipPath><g clip-path="url(#a)" fill="#263238" transform="translate(-685 -5165)"><path d="m66 48.682v-29.71h11.48q5.447 0 8.417 2.589a9.255 9.255 0 0 1 2.971 7.372 9.216 9.216 0 0 1 -2.973 7.361q-2.973 2.578-8.422 2.578h-5.947v9.808zm5.527-14.615h5.526q3.639 0 4.964-1.3a5.137 5.137 0 0 0 1.325-3.833 5.009 5.009 0 0 0 -1.336-3.79q-1.336-1.279-4.955-1.277h-5.525z" transform="translate(682.563 5186.436)"/><path d="m87.943 40.794a7.325 7.325 0 0 1 .135-1.381 6.56 6.56 0 0 1 .711-1.773 6.173 6.173 0 0 1 1.57-1.87 8.59 8.59 0 0 1 2.941-1.381 16.233 16.233 0 0 1 4.585-.576 28.858 28.858 0 0 1 4.032.3q0-4.241-4.861-4.241a18.325 18.325 0 0 0 -6.745 1.131v-4.389a20.952 20.952 0 0 1 7.059-1.131q4.913 0 7.516 2.425t2.6 7.014v6a6.884 6.884 0 0 1 -.6 2.881 7.078 7.078 0 0 1 -1.762 2.393q-2.367 2.207-7.28 2.207-5.082 0-7.489-2.218a7.177 7.177 0 0 1 -1.8-2.447 6.974 6.974 0 0 1 -.612-2.944zm5.527-.674q0 3.567 4.323 3.567h.045q4.122 0 4.122-3.371v-2.807a28.52 28.52 0 0 0 -3.293-.283q-5.176 0-5.2 2.892z" transform="translate(684.667 5187.06)"/><path d="m108.165 36.89a15.138 15.138 0 0 1 .786-5.127 9.64 9.64 0 0 1 1.864-3.342 8.653 8.653 0 0 1 2.55-1.872 9.4 9.4 0 0 1 2.572-.892 14.046 14.046 0 0 1 2.2-.174q4.83 0 7.109 2.13a6.94 6.94 0 0 1 1.707 2.354 6.739 6.739 0 0 1 .572 2.822v15.811a9.728 9.728 0 0 1 -.2 2.022 7.853 7.853 0 0 1 -.853 2.13 6.449 6.449 0 0 1 -1.729 2 9.379 9.379 0 0 1 -3.032 1.4 16.093 16.093 0 0 1 -4.537.576 23.121 23.121 0 0 1 -6.628-.892v-4.8a19.433 19.433 0 0 0 6 .891 14.485 14.485 0 0 0 3.144-.279 2.726 2.726 0 0 0 1.65-.879 3.335 3.335 0 0 0 .55-1.019 4.635 4.635 0 0 0 .11-1.145v-1.205a20.153 20.153 0 0 1 -3.482.371q-5.009 0-7.682-2.808t-2.671-8.073zm5.526.1q0 3.728 1.235 5.061a4.906 4.906 0 0 0 3.774 1.329 17.858 17.858 0 0 0 3.3-.3v-10.32q0-2.471-3.8-2.471h-.067a3.845 3.845 0 0 0 -3.325 1.55q-1.119 1.55-1.117 5.148z" transform="translate(686.606 5187.06)"/><path d="m128.673 37.187a13.66 13.66 0 0 1 2.46-8.547q2.459-3.2 7.806-3.2 5.053 0 7.648 3.11a11.545 11.545 0 0 1 2.594 7.655q0 1.871-.091 2.762h-14.89q.224 2.893 1.785 3.871a7.54 7.54 0 0 0 4.055.979 18.659 18.659 0 0 0 7.816-1.718v4.306a18.341 18.341 0 0 1 -8.648 2 16.46 16.46 0 0 1 -2.875-.239 9.625 9.625 0 0 1 -2.793-1 8.723 8.723 0 0 1 -2.489-1.936 9.041 9.041 0 0 1 -1.71-3.251 15.668 15.668 0 0 1 -.668-4.792zm5.528-1.914h9.254a7.533 7.533 0 0 0 -1.4-3.862 3.754 3.754 0 0 0 -1.416-1.188 3.891 3.891 0 0 0 -1.83-.387 4.113 4.113 0 0 0 -3.222 1.284 6.986 6.986 0 0 0 -1.383 4.153z" transform="translate(688.573 5187.056)"/><path d="m151.026 48.682v-29.71h11.052a17.046 17.046 0 0 1 3.908.423 12.136 12.136 0 0 1 3.358 1.334 6.424 6.424 0 0 1 2.459 2.6 8.4 8.4 0 0 1 .9 3.991 6.058 6.058 0 0 1 -3.639 5.763q5.346 1.864 5.346 6.85a11.2 11.2 0 0 1 -.214 2.246 7.747 7.747 0 0 1 -.942 2.3 7.021 7.021 0 0 1 -1.909 2.126 10.314 10.314 0 0 1 -3.269 1.471 17.831 17.831 0 0 1 -4.9.6zm5.528-17.594h5.84q4.784 0 4.784-3.587 0-3.937-5.188-3.938h-5.436zm0 12.875h6.356q5.975 0 5.975-4.305 0-3.85-6.177-3.851h-6.155z" transform="translate(690.717 5186.436)"/><path d="m175.47 37.957v-12.157h5.53v12.843a5.417 5.417 0 0 0 1.127 3.84 4.916 4.916 0 0 0 3.67 1.171 4.985 4.985 0 0 0 3.714-1.171 5.428 5.428 0 0 0 1.127-3.84v-12.843h5.526v12.157a10.394 10.394 0 0 1 -2.741 7.655 10.26 10.26 0 0 1 -7.625 2.762q-4.886 0-7.6-2.762a10.45 10.45 0 0 1 -2.728-7.655z" transform="translate(693.062 5187.091)"/><path d="m198.459 48.767v-30.686h5.527v30.686z" transform="translate(695.267 5186.35)"/><path d="m207.819 41.631v-23.631h5.526v8.547a21.78 21.78 0 0 1 3.773-.348q5.122 0 7.873 2.887t2.751 8.313a15.768 15.768 0 0 1 -.805 5.262 9.884 9.884 0 0 1 -1.9 3.454 8.761 8.761 0 0 1 -2.628 1.917 9.708 9.708 0 0 1 -2.661.915 14.865 14.865 0 0 1 -2.27.174q-4.92 0-7.289-2.2a7.08 7.08 0 0 1 -1.768-2.4 6.874 6.874 0 0 1 -.602-2.89zm5.526.5q0 2.4 4.133 2.4a3.959 3.959 0 0 0 3.683-1.734q1.055-1.734 1.055-5.683 0-3.752-1.358-5.246a5.062 5.062 0 0 0 -3.943-1.495 15.438 15.438 0 0 0 -3.57.371z" transform="translate(696.164 5186.343)"/><path d="m37.864 54.89a8.64 8.64 0 0 0 .8-3.619h-17.772a8.635 8.635 0 0 0 .8 3.619z" transform="translate(678.236 5189.534)"/><path d="m22.168 56.287a8.815 8.815 0 0 0 3.213 2.985 8.959 8.959 0 0 0 8.546 0 8.815 8.815 0 0 0 3.213-2.985z" transform="translate(678.359 5190.015)"/><path d="m40.741 24.035h-21.593v12.4h21.593zm-2.547 10.258h-16.641v-8.2h16.641z" transform="translate(678.069 5186.922)"/><path d="m39.563 20.259h-19.236a1.177 1.177 0 0 0 -.831.342 1.166 1.166 0 0 0 -.257.381 1.152 1.152 0 0 0 -.089.449v1.1h21.593v-1.1a1.173 1.173 0 0 0 -.728-1.084 1.178 1.178 0 0 0 -.452-.088z" transform="translate(678.069 5186.559)"/><path d="m40.741 37.053h-21.593v9.19h21.593zm-2.547 7.31h-16.736v-1.877h16.736zm-16.736-3.563v-1.883h16.736v1.883z" transform="translate(678.069 5188.17)"/><path d="m35.916 27.627h-12.838v4.445h12.838z" transform="translate(678.446 5187.266)"/><path d="m31.015 4a23.216 23.216 0 0 0 -11.648 3.116 22.841 22.841 0 0 0 -8.445 8.512 22.459 22.459 0 0 0 .5 22.992l.03.049q.239.377.491.747l6.377 9.738v-26.164a3.009 3.009 0 0 1 .234-1.165 3.042 3.042 0 0 1 .668-.988 3.1 3.1 0 0 1 2.18-.893h19.232a3.1 3.1 0 0 1 2.18.893 3.043 3.043 0 0 1 .668.988 3.009 3.009 0 0 1 .234 1.165v26.38l6.634-10.345c.07-.1.138-.212.208-.32l.053-.085a22.462 22.462 0 0 0 .5-22.99 22.844 22.844 0 0 0 -8.444-8.512 23.219 23.219 0 0 0 -11.651-3.118z" transform="translate(677 5185)"/></g></svg>