<?xml version="1.0" encoding="UTF-8"?>
<!DOCTYPE svg PUBLIC "-//W3C//DTD SVG 1.1//EN" "http://www.w3.org/Graphics/SVG/1.1/DTD/svg11.dtd">
<!-- Creator: CorelDRAW -->
<svg xmlns="http://www.w3.org/2000/svg" xml:space="preserve" width="210mm" height="297mm" version="1.1" style="shape-rendering:geometricPrecision; text-rendering:geometricPrecision; image-rendering:optimizeQuality; fill-rule:evenodd; clip-rule:evenodd"
viewBox="0 0 21000 29700"
 xmlns:xlink="http://www.w3.org/1999/xlink">
 <defs>
  <style type="text/css">
   <![CDATA[
    .fil0 {fill:#FEFEFE}
    .fil1 {fill:#E62129}
    .fil2 {fill:black}
   ]]>
  </style>
 </defs>
 <g id="Layer_x0020_1">
  <metadata id="CorelCorpID_0Corel-Layer"/>
  <g id="Palang_x0020_Merah_x0020_Indonesia_x0020__x0028_PMI_x0029_.cdr">
   <path class="fil0" d="M6840 15929c261,293 420,679 420,1101 0,911 -743,1655 -1655,1655 -618,0 -1159,-342 -1443,-846 -286,499 -824,837 -1438,837 -912,0 -1656,-744 -1656,-1656 0,-417 157,-800 413,-1091 -744,-162 -1304,-827 -1304,-1618 0,-912 743,-1656 1655,-1656 242,0 473,53 680,147 -5,-54 -8,-108 -8,-163 0,-911 744,-1655 1656,-1655 912,0 1655,744 1655,1655 0,55 -3,110 -8,163 207,-93 435,-144 676,-144 912,0 1655,743 1655,1655 0,789 -557,1452 -1298,1616z"/>
   <path class="fil1" d="M7135 16024c73,111 134,230 182,355 77,203 120,422 120,651 0,504 -206,962 -538,1294 -332,332 -790,538 -1294,538 -335,0 -651,-92 -923,-251 -201,-118 -378,-274 -521,-457 -143,181 -319,334 -520,451 -270,157 -584,247 -917,247 -505,0 -963,-205 -1295,-537 -331,-332 -537,-790 -537,-1295 0,-226 42,-443 118,-644 47,-124 106,-242 177,-351 -308,-117 -577,-315 -781,-567 -254,-315 -406,-714 -406,-1147 0,-505 206,-963 538,-1295 331,-332 789,-537 1294,-537 131,0 260,14 385,41 38,8 76,18 113,28 23,-468 224,-891 535,-1203 332,-332 790,-538 1295,-538 504,0 962,206 1294,538 312,312 513,735 535,1204 37,-10 74,-19 111,-27 125,-27 253,-41 383,-41 504,0 963,206 1294,538 332,331 538,790 538,1294 0,432 -151,830 -404,1145 -202,251 -469,449 -776,566zm-4623 -3222c-5,-54 -8,-108 -8,-163 0,-911 744,-1655 1656,-1655 912,0 1655,744 1655,1655 0,55 -3,110 -8,163 207,-93 435,-144 676,-144 912,0 1655,743 1655,1655 0,789 -557,1452 -1298,1616 261,293 420,679 420,1101 0,911 -743,1655 -1655,1655 -618,0 -1159,-342 -1443,-846 -286,499 -824,837 -1438,837 -912,0 -1656,-744 -1656,-1656 0,-417 157,-800 413,-1091 -744,-162 -1304,-827 -1304,-1618 0,-912 743,-1656 1655,-1656 242,0 473,53 680,147z"/>
   <polygon class="fil1" points="3348,12545 4967,12545 4967,14161 6583,14161 6583,15780 4967,15780 4967,17395 3348,17395 3348,15780 1732,15780 1732,14161 3348,14161 "/>
   <path class="fil2" d="M12361 18885c-45,-7 -100,-18 -138,-44 -75,-30 -144,-121 -170,-195 -2,-1 -3,-3 -4,-4 -14,-47 -29,-93 -42,-139 -5,-25 -9,-48 -13,-71 -5,-54 -10,-105 -15,-157 0,-119 1,-235 2,-352 13,-89 17,-178 48,-263 22,-92 74,-179 147,-239 20,-12 39,-25 59,-37 11,-7 24,-12 37,-17 15,-5 29,-9 44,-13 45,-5 89,-13 133,-13 28,4 57,8 87,13 27,12 56,19 80,36 50,25 91,73 124,116 1,0 2,0 5,0 1,-3 2,-5 5,-8 0,-196 0,-392 1,-588 7,-7 15,-7 24,-10 113,0 226,0 340,0 8,0 13,6 18,11 -1,646 -1,1291 -1,1937 -8,8 -17,10 -29,11 -108,0 -215,0 -322,0 -4,-4 -8,-8 -11,-12 -2,-41 -3,-83 -3,-123 -4,-1 -8,-3 -12,-3 -63,82 -101,111 -200,155 -46,13 -163,20 -194,9zm163 -282c-10,-3 -21,-5 -30,-8 -41,-20 -70,-40 -89,-83 -11,-10 -7,-31 -17,-41 -7,-32 -12,-61 -17,-91 -4,-39 -8,-78 -10,-117 -2,-69 -3,-138 -3,-207 4,-65 8,-128 13,-192 8,-57 18,-122 54,-167 0,-25 72,-52 87,-57 28,0 55,0 82,0 13,4 26,7 39,13 9,6 18,13 27,19 28,29 45,55 52,92 13,13 8,44 19,61 3,35 9,70 14,107 5,158 10,319 -13,476 -5,22 -11,44 -16,68 -6,14 -13,28 -18,43 -5,20 -30,46 -45,58 -11,5 -20,10 -29,16 -32,6 -66,9 -100,10z"/>
   <path class="fil2" d="M13906 18893c-2,-3 -3,-6 -3,-8 -56,-9 -121,-17 -173,-39 -18,-9 -35,-18 -52,-26 -22,-17 -44,-34 -64,-51 -13,-14 -37,-35 -45,-52 -20,0 -67,-127 -75,-140 -10,-36 -19,-73 -28,-108 -10,-71 -19,-142 -26,-214 0,-2 0,-4 0,-5 0,-81 0,-161 1,-242 0,-26 -1,-54 8,-79 4,-74 14,-148 39,-218 10,-52 40,-97 63,-144 8,-13 16,-25 24,-36 2,-3 5,-4 7,-6 9,-19 48,-65 69,-70 0,-13 50,-34 60,-44 8,-5 17,-9 26,-13 27,-10 54,-21 83,-31 84,-17 166,-26 252,-26 39,4 78,8 117,13 43,10 85,23 127,39 18,10 38,21 57,31 0,4 34,25 39,27 0,2 0,3 1,6 68,58 113,138 137,223 1,1 2,4 5,6 12,61 30,122 34,185 10,50 11,106 13,158 -2,92 -3,185 -4,278 -15,36 -3,101 -22,131 -7,27 -12,56 -17,85 -5,15 -11,32 -16,49 -5,10 -9,21 -13,32 -24,47 -50,94 -84,135 -11,7 -42,33 -46,42 -29,21 -68,53 -105,60 -57,28 -130,37 -193,45 0,1 0,4 0,7 -61,0 -122,0 -182,0 0,-3 0,-6 0,-7 -3,0 -5,0 -8,0 0,1 0,4 0,7 -2,0 -5,0 -6,0zm78 -257c-16,-7 -32,-12 -46,-17 0,-3 0,-4 0,-6 -30,-11 -43,-35 -60,-59 -1,0 -2,0 -3,0 -10,-22 -19,-43 -26,-64 -15,-52 -19,-106 -21,-160 -21,-124 -5,-258 -5,-384 10,-78 7,-160 40,-232 8,-16 17,-32 26,-46 30,-35 54,-50 100,-61 24,0 78,-8 97,12 13,6 26,13 40,21 0,7 8,10 13,13 13,24 26,49 41,75 48,161 41,335 41,501 -2,62 -11,127 -17,190 -5,19 -9,40 -13,61 -9,22 -17,62 -33,79 -8,17 -25,31 -35,45 -19,9 -37,19 -55,28 -29,1 -57,2 -84,4z"/>
   <path class="fil2" d="M16818 18893c0,-3 0,-6 0,-7 -66,-8 -135,-17 -195,-47 -15,0 -49,-24 -62,-32 0,-3 0,-4 0,-5 -25,0 -78,-64 -91,-76 -36,-52 -74,-111 -88,-175 -22,-44 -27,-109 -35,-158 -2,-39 -3,-78 -4,-117 -17,-35 6,-92 -9,-131 1,-51 2,-102 5,-152 3,-35 5,-70 8,-104 4,-33 8,-64 13,-95 10,-38 21,-75 31,-113 9,-23 18,-47 28,-69 7,-4 21,-39 25,-48 20,-26 39,-50 60,-75 18,-16 38,-31 57,-45 0,-15 58,-34 71,-47 8,-3 16,-5 24,-7 1,-2 4,-4 6,-5 94,-31 189,-43 289,-43 42,7 111,-1 146,22 59,8 115,45 165,74 55,48 100,98 129,167 18,36 33,76 40,118 1,2 3,6 5,10 5,34 11,69 17,104 4,58 8,117 13,175 0,22 6,156 -3,165 -245,0 -489,1 -733,3 -9,4 -9,8 -13,17 0,45 -3,93 5,137 0,102 19,213 103,281 14,6 28,13 42,19 26,0 52,0 78,0 12,-5 25,-9 38,-13 44,-27 71,-69 90,-115 9,-43 24,-89 27,-133 2,-5 5,-10 8,-14 109,0 218,0 327,0 2,4 5,8 8,13 -3,32 -6,65 -7,99 -8,23 -6,55 -18,74 -18,84 -84,215 -168,257 0,10 -71,40 -85,49 -30,5 -65,16 -94,26 -26,3 -50,5 -75,9 0,1 0,4 0,7 -60,0 -119,0 -178,0zm-91 -943c-4,-3 -6,-5 -9,-7 -1,-18 -1,-36 -1,-53 9,-66 5,-137 45,-195 2,-5 4,-10 7,-15 1,-1 4,-1 6,-1 0,-19 37,-43 48,-54 9,-5 20,-9 30,-13 36,-5 82,-10 118,0 21,11 43,24 61,39 61,87 63,190 68,294 -1,0 -3,1 -3,2 -123,0 -246,2 -370,3z"/>
   <path class="fil2" d="M18204 18893c0,-3 0,-6 0,-7 -51,-5 -103,-14 -152,-25 -24,-7 -46,-15 -68,-23 -54,-27 -132,-77 -154,-138 -43,-57 -47,-142 -55,-210 -1,-35 -1,-70 -1,-105 2,-4 5,-8 9,-10 109,-2 219,-2 330,-2 1,37 4,73 6,111 11,28 22,84 49,97 0,22 82,51 100,53 29,0 59,0 89,0 26,-5 57,-15 79,-30 25,-20 40,-46 56,-72 4,-26 9,-54 9,-81 -4,-17 -7,-34 -9,-49 -4,-7 -8,-13 -11,-20 -7,-7 -14,-15 -20,-23 -21,-16 -42,-31 -61,-45 -42,-12 -82,-37 -125,-47 -9,-9 -26,-11 -39,-15 0,-5 -30,-11 -35,-11 -26,-12 -66,-20 -88,-35 -28,-5 -58,-21 -83,-30 -38,-26 -93,-43 -121,-81 -38,-29 -79,-78 -92,-126 -3,-3 -6,-7 -7,-11 -6,-20 -12,-39 -17,-59 -4,-26 -8,-52 -11,-78 0,-20 0,-40 0,-59 13,-34 5,-78 22,-113 11,-63 50,-121 96,-166 26,-21 52,-41 79,-60 36,-16 71,-35 109,-46 58,-19 121,-31 184,-31 69,-10 147,3 215,9 57,13 113,29 164,55 24,17 47,34 71,52 5,10 19,22 27,30 22,32 49,71 58,111 29,69 25,146 25,218 -112,2 -222,3 -332,4 -15,-14 -11,-33 -12,-53 -4,-19 -7,-38 -9,-56 -11,-21 -20,-41 -29,-62 -11,-10 -23,-20 -35,-29 -10,-5 -19,-9 -28,-13 -41,-5 -84,-4 -124,0 -28,13 -54,28 -79,46 -9,13 -18,26 -26,40 -4,16 -8,31 -10,48 1,16 2,31 4,48 1,9 3,18 6,27 5,10 10,19 16,29 24,30 55,47 88,65 58,19 122,49 182,61 53,18 106,38 161,57 26,13 62,25 83,46 10,6 22,12 34,19 6,5 13,10 20,16 0,1 0,2 0,5 2,0 3,0 4,0 16,19 33,39 50,58 26,0 54,124 62,140 5,52 9,106 6,159 -2,61 -18,124 -45,179 -30,43 -60,92 -104,122 0,16 -93,60 -115,68 -2,1 -3,2 -3,3 -36,10 -71,19 -107,29 -31,3 -61,5 -90,9 0,1 0,4 0,7 -59,0 -117,0 -176,0 0,-3 0,-6 0,-7 -5,0 -9,0 -13,0 0,1 0,4 0,7 -2,0 -5,0 -7,0z"/>
   <path class="fil2" d="M20151 18893c-1,-3 -2,-6 -2,-8 -72,-11 -161,-44 -200,-111 -2,0 -3,0 -4,0 -20,-25 -38,-55 -47,-88 -23,-28 -31,-104 -38,-135 0,-57 0,-114 0,-171 7,-30 8,-73 25,-99 12,-60 57,-127 108,-161 1,-3 2,-5 5,-8 51,-31 93,-57 149,-74 28,-10 56,-22 85,-26 7,-4 15,-6 23,-9 62,-12 123,-35 186,-47 13,-5 27,-9 41,-13 11,-5 21,-9 33,-13 14,-10 30,-20 45,-31 4,-6 8,-13 13,-19 7,-18 14,-33 17,-52 0,-26 10,-105 -10,-126 -3,-8 -6,-16 -7,-22 -2,-1 -4,-3 -5,-3 0,-9 -18,-27 -23,-36 -8,-5 -16,-10 -24,-16 -11,-5 -23,-9 -34,-13 -54,-9 -149,-17 -187,37 -27,17 -37,59 -48,87 -1,32 -2,65 -3,98 -113,0 -226,2 -339,3 -3,-1 -4,-3 -6,-3 0,-32 0,-65 2,-96 14,-107 41,-171 105,-255 16,-15 31,-29 48,-42 30,-21 58,-39 92,-49 21,-11 46,-19 68,-25 18,-5 36,-9 56,-13 33,-3 68,-5 103,-8 46,-14 107,0 155,0 25,3 51,5 77,8 20,4 41,8 62,13 19,6 44,10 60,22 59,14 132,68 162,123 35,35 39,104 56,148 1,20 4,39 6,59 7,322 7,648 8,970 4,40 8,92 29,127 1,10 14,32 2,40 -115,0 -231,2 -345,3 -4,-3 -8,-5 -12,-7 -6,-11 -13,-23 -18,-35 -5,-15 -9,-31 -13,-45 -4,-18 -8,-36 -10,-55 -6,2 -11,3 -15,6 -36,53 -79,109 -141,131 -43,20 -100,27 -147,33 0,2 0,3 0,6 -48,0 -96,0 -143,0zm177 -257c-17,-11 -42,-16 -53,-36 -51,-50 -51,-131 -51,-197 8,-78 39,-134 108,-173 13,-5 26,-10 39,-14 68,-27 146,-35 209,-80 2,1 6,2 10,4 0,105 0,211 0,318 -6,39 -23,70 -47,101 -18,16 -36,31 -54,47 -25,7 -48,17 -72,26 -30,1 -59,2 -89,4z"/>
   <path class="fil2" d="M9874 18860c-9,-2 -18,-5 -26,-6 0,-651 0,-1300 0,-1949 4,-2 8,-3 13,-4 119,0 240,0 361,0 6,1 13,2 19,4 0,646 2,1294 3,1942 -4,3 -6,7 -9,11 -121,0 -242,1 -361,2z"/>
   <path class="fil2" d="M10575 18860c-10,-1 -19,-4 -26,-10 -1,-485 -1,-968 -1,-1451 1,-5 2,-10 4,-14 118,-1 236,-1 354,-1 2,2 3,5 5,9 0,48 0,96 2,145 1,3 2,6 5,9 3,-10 8,-11 14,-18 17,-22 34,-44 51,-66 6,-5 13,-10 21,-16 0,-24 107,-68 124,-76 60,-17 122,-29 185,-29 32,4 66,8 100,13 14,4 30,8 45,13 12,5 25,11 38,16 26,22 59,39 83,65 6,8 13,15 21,24 11,21 23,43 36,65 5,15 10,29 16,43 6,39 14,77 16,117 0,383 0,767 0,1152 -2,2 -5,5 -7,9 -122,-1 -244,-1 -365,-1 -3,-3 -5,-6 -7,-8 -1,-356 -1,-710 -1,-1065 -5,-23 -10,-45 -16,-67 -5,-10 -10,-19 -15,-28 -3,0 -4,0 -5,0 -28,-37 -51,-40 -95,-52 -40,0 -74,3 -113,13 -9,6 -18,11 -27,16 -13,10 -25,21 -37,32 -10,16 -19,33 -28,50 -4,9 -8,19 -11,30 -4,23 -6,46 -9,71 -1,330 -1,660 -1,991 0,15 -20,17 -31,18 -109,0 -217,0 -325,1z"/>
   <path class="fil2" d="M14929 18860c-9,-1 -16,-6 -20,-14 0,-483 0,-965 0,-1447 0,-7 4,-13 8,-16 114,0 230,0 346,0 2,0 5,1 7,2 16,47 -18,112 11,156 4,0 24,-34 27,-39 4,0 22,-23 25,-29 7,-5 32,-28 36,-36 34,-21 68,-51 108,-61 60,-30 135,-35 201,-35 31,4 62,8 95,13 19,6 43,10 60,22 15,4 62,23 67,40 51,25 86,99 104,150 12,44 22,91 26,136 -1,383 -1,767 -1,1152 -6,1 -9,2 -13,5 -119,0 -237,0 -355,0 -4,-3 -6,-5 -9,-7 -3,-352 -4,-703 -5,-1054 -3,-19 -5,-39 -8,-58 -5,-12 -9,-24 -13,-35 -15,-24 -35,-39 -58,-54 -12,-4 -24,-7 -34,-11 -30,0 -60,0 -90,0 -15,4 -31,9 -45,14 -7,3 -13,6 -20,10 -28,25 -42,37 -59,68 -2,8 -6,19 -12,26 -7,32 -13,65 -18,98 -1,333 -1,665 -1,998 -3,1 -4,2 -6,5 -118,0 -236,0 -354,1z"/>
   <path class="fil2" d="M19177 18860c-2,-2 -4,-5 -5,-6 -1,-486 -1,-972 -1,-1457 1,-5 2,-11 5,-14 122,0 245,0 369,1 1,1 2,4 4,6 0,487 0,974 0,1461 -2,1 -3,3 -4,5 -124,2 -246,3 -368,4z"/>
   <path class="fil2" d="M19175 17229c-2,-5 -3,-10 -4,-15 0,-102 0,-202 0,-301 4,-10 4,-10 13,-13 117,0 234,0 350,0 4,1 8,2 12,3 0,106 1,211 3,317 -2,2 -3,4 -3,7 -125,0 -248,1 -371,2z"/>
   <path class="fil2" d="M12384 15958c-52,0 -104,-9 -156,-12 -17,-5 -65,-11 -75,-22 -7,-1 -13,-2 -20,-4 -57,-24 -136,-66 -171,-119 -22,-10 -33,-44 -49,-61 -24,-52 -47,-103 -60,-158 -14,-30 -16,-69 -22,-102 -4,-49 -8,-98 -11,-146 -1,-67 -2,-133 -2,-198 5,-79 10,-158 17,-237 6,-25 5,-60 18,-81 4,-21 12,-70 26,-84 6,-20 13,-38 21,-56 18,-30 36,-72 63,-94 2,-4 3,-7 4,-10 10,-5 22,-18 29,-27 23,-18 46,-37 70,-55 17,-10 34,-19 52,-28 17,-7 33,-13 52,-20 27,-8 54,-14 81,-21 28,-4 56,-7 85,-11 45,0 91,0 136,0 30,4 60,7 90,13 34,10 75,17 105,37 17,0 60,33 71,41 17,13 34,27 51,41 12,14 23,29 36,43 19,32 37,65 55,99 5,11 10,24 15,37 4,15 8,29 13,43 4,18 8,37 13,55 4,27 8,54 13,82 4,57 8,114 13,172 -1,56 -1,112 -1,168 -249,1 -498,4 -748,6 0,47 0,94 0,140 4,42 8,84 13,126 4,16 8,32 13,47 18,52 46,95 91,127 10,4 22,8 34,13 25,0 50,0 76,0 20,-9 39,-18 60,-26 8,-9 16,-16 24,-24 18,0 50,-103 53,-117 9,-30 13,-60 18,-91 3,-5 6,-10 10,-14 109,0 220,0 330,1 1,3 3,5 4,8 0,67 -14,136 -31,200 -12,27 -23,56 -34,84 -17,31 -38,64 -62,91 -14,4 -50,45 -63,57 -18,11 -36,21 -54,33 -10,2 -23,6 -30,13 -18,5 -35,10 -52,16 -19,4 -39,8 -58,13 -26,3 -52,6 -78,10 -26,0 -52,1 -78,2zm-173 -939c-5,-2 -9,-5 -13,-6 2,-118 4,-246 109,-321 37,-15 64,-19 105,-19 39,6 60,15 91,37 8,9 17,19 26,29 4,8 8,15 13,23 4,11 8,22 13,34 4,17 8,35 13,53 4,54 9,107 15,161 -2,2 -3,3 -3,5 -123,2 -247,3 -369,4z"/>
   <path class="fil2" d="M14500 15957c-22,-4 -44,-8 -65,-11 -37,-10 -115,-41 -133,-77 -38,-29 -56,-76 -78,-113 -4,-11 -8,-20 -11,-29 -5,-19 -10,-38 -15,-56 -5,-31 -9,-62 -13,-93 0,-65 -3,-146 22,-205 10,-65 57,-154 114,-182 0,-3 0,-5 0,-7 38,-18 75,-54 118,-62 54,-26 117,-44 176,-56 17,-8 42,-8 58,-18 44,-12 88,-23 132,-34 11,-5 21,-9 33,-13 21,-14 42,-28 60,-47 4,-7 7,-15 13,-23 4,-18 7,-35 13,-52 0,-19 0,-39 0,-58 -6,-18 -9,-37 -13,-55 -24,-40 -44,-71 -93,-86 -50,-3 -132,-19 -174,23 -44,14 -58,92 -67,128 -1,23 -3,47 -4,72 -113,0 -225,0 -336,0 -2,-29 -2,-58 -2,-85 4,-65 19,-130 49,-186 5,-9 10,-16 16,-24 43,-94 147,-139 237,-170 18,-6 37,-9 57,-13 32,-6 65,-9 97,-13 109,0 220,-2 326,28 24,8 47,17 72,26 39,18 70,43 102,69 14,20 29,39 44,60 5,18 16,45 26,61 4,17 8,34 13,52 4,26 8,53 13,80 2,318 3,636 4,956 4,57 16,113 39,165 -1,5 -3,10 -3,17 -115,0 -231,0 -346,1 -21,-7 -29,-42 -38,-61 -4,-27 -12,-58 -22,-84 -1,-2 -3,-2 -4,-2 -18,37 -54,82 -87,105 0,12 -65,35 -74,45 -22,5 -44,10 -65,16 -19,2 -52,-1 -67,10 -42,0 -83,0 -124,1zm178 -252c-31,0 -59,-22 -82,-42 -7,-10 -14,-20 -20,-31 -6,-11 -9,-23 -13,-35 -6,-24 -9,-49 -13,-74 0,-54 6,-101 31,-150 2,-7 6,-12 10,-17 13,-13 26,-26 39,-39 53,-33 107,-50 168,-61 13,-6 26,-9 39,-13 19,-11 52,-22 67,-38 5,-1 11,-1 16,-1 0,101 1,204 2,306 -5,18 -9,37 -13,56 -15,29 -33,56 -57,81 -22,13 -44,27 -66,41 -36,9 -70,16 -108,17z"/>
   <path class="fil2" d="M9858 15928c-3,-1 -7,-2 -10,-4 -1,-650 -3,-1301 -3,-1950 4,-4 8,-6 12,-9 191,0 383,0 575,1 4,13 8,28 13,42 7,39 13,78 21,117 1,4 3,8 5,13 11,69 25,143 43,210 1,25 8,52 16,75 1,21 5,43 13,63 4,39 15,78 20,117 7,22 7,58 19,76 6,40 13,81 20,121 13,26 12,65 23,95 5,43 15,87 25,128 13,103 45,205 62,307 0,1 1,2 2,4 12,-32 21,-63 25,-96 5,-25 11,-50 18,-74 6,-39 13,-78 21,-117 9,-30 10,-65 22,-95 11,-95 44,-190 56,-285 6,-32 14,-64 22,-97 19,-105 46,-214 62,-318 1,-5 3,-9 5,-13 7,-48 17,-97 30,-144 5,-43 8,-95 34,-130 191,0 382,0 572,1 2,6 4,11 7,16 -1,645 -1,1291 -1,1936 -3,2 -4,5 -6,8 -119,-2 -238,-2 -357,-2 -2,-506 -5,-1012 -6,-1517 -1,-4 -3,-8 -4,-11 -27,82 -34,174 -60,257 -15,94 -45,187 -59,283 -16,33 -21,83 -26,120 -16,31 -22,78 -26,113 -20,66 -30,137 -48,204 -26,116 -52,233 -77,350 -8,29 -14,57 -21,86 -4,28 -13,95 -31,117 -99,0 -197,0 -295,0 -4,-2 -6,-3 -9,-3 -9,-27 -17,-57 -19,-86 -24,-83 -46,-175 -59,-261 -9,-19 -9,-46 -18,-67 -12,-56 -23,-110 -34,-165 -10,-21 -6,-51 -18,-69 -2,-17 -4,-47 -13,-61 -26,-141 -66,-282 -92,-423 -18,-38 -13,-90 -31,-126 -12,-75 -35,-151 -47,-226 -4,-7 -6,-13 -9,-20 -4,-12 -6,-24 -9,-36 -1,5 -3,11 -4,17 -1,508 -3,1015 -4,1524 -115,2 -231,3 -347,4z"/>
   <path class="fil2" d="M13186 15928c-2,-4 -5,-6 -6,-9 0,-488 0,-976 0,-1464 1,-2 2,-3 4,-4 117,0 235,0 353,0 1,0 3,1 5,2 0,53 0,107 1,161 3,5 6,11 9,16 32,-52 67,-96 111,-138 17,-13 34,-24 52,-36 8,-5 17,-11 26,-16 10,-5 22,-10 34,-14 51,-9 127,-30 176,-5 0,115 0,232 1,349 -2,3 -5,5 -6,9 -48,-1 -96,-2 -144,-2 -24,3 -47,9 -69,14 -34,17 -74,30 -99,60 -10,9 -20,19 -30,29 -10,17 -19,34 -28,51 -5,14 -9,30 -13,46 -1,312 -3,625 -4,938 -1,3 -3,7 -4,11 -123,0 -247,1 -369,2z"/>
   <path class="fil2" d="M15578 15928c-5,-5 -10,-9 -16,-13 0,-645 0,-1289 0,-1933 3,-10 3,-13 12,-17 120,0 240,0 361,0 4,5 8,10 12,17 -1,197 -1,395 -1,593 5,6 5,7 15,7 42,-76 121,-133 204,-151 14,-14 60,-14 80,-18 38,-1 76,-1 115,-1 26,4 52,7 79,13 49,15 95,36 135,69 0,1 0,2 0,3 4,3 8,6 13,9 0,2 0,3 0,4 27,19 49,63 61,91 9,9 10,30 17,43 4,20 8,40 13,61 1,22 4,44 6,66 -1,383 -1,766 -1,1149 -1,2 -3,3 -4,6 -125,-2 -248,-2 -371,-2 -3,-362 -5,-724 -7,-1086 -7,-25 -13,-52 -26,-76 -45,-58 -111,-62 -181,-54 -32,14 -71,22 -91,52 -12,0 -33,48 -38,61 -8,36 -16,72 -19,110 0,323 0,647 1,970 -3,8 -5,16 -8,23 -121,2 -241,3 -361,4z"/>
   <path class="fil2" d="M16727 13273c-21,-10 -50,0 -71,-8 -81,-6 -159,-27 -231,-63 -9,-6 -17,-10 -25,-13 0,-2 0,-3 0,-4 -64,-34 -101,-93 -132,-156 -7,-24 -13,-47 -19,-70 -2,-29 -5,-57 -6,-85 118,-1 237,-1 357,-1 10,7 14,43 18,56 4,8 9,17 14,26 6,5 11,10 16,17 14,9 29,19 44,30 8,3 16,7 25,13 50,9 106,11 156,-3 33,-14 71,-38 83,-74 10,-10 19,-43 26,-58 22,-93 13,-194 13,-289 -4,-1 -8,-2 -11,-4 -10,22 -36,42 -52,63 -15,11 -31,23 -46,36 -8,5 -16,10 -22,17 -20,9 -39,19 -59,30 -13,4 -25,8 -36,13 -25,4 -48,8 -72,13 -17,0 -33,0 -50,0 -29,-5 -57,-9 -86,-13 -18,-7 -36,-12 -55,-17 -45,-36 -107,-49 -140,-103 -2,0 -4,0 -5,0 0,-10 -38,-55 -39,-58 -14,-31 -28,-62 -41,-94 -24,-77 -41,-157 -46,-237 -4,-22 -6,-43 -9,-64 -1,-87 -3,-174 -3,-261 3,-65 13,-130 16,-193 9,-43 13,-105 35,-143 3,-12 5,-29 13,-36 10,-26 22,-52 34,-78 18,-28 37,-54 57,-80 12,0 31,-41 48,-41 16,-31 80,-49 109,-62 22,-6 44,-11 66,-16 52,0 107,-3 159,3 27,10 61,15 84,32 38,16 77,48 99,82 20,10 28,50 45,67 1,-2 4,-5 7,-7 0,-42 0,-84 1,-124 4,-15 6,-14 17,-21 106,0 213,0 321,0 6,0 13,2 20,3 2,3 3,5 6,8 -2,495 -2,989 -2,1484 -5,31 -9,62 -13,93 -11,34 -22,69 -32,104 -15,26 -29,52 -42,78 -13,15 -24,29 -36,44 -18,12 -42,38 -56,55 -48,27 -106,65 -162,73 -20,6 -38,11 -59,13 -33,16 -83,6 -118,18 -38,1 -75,2 -113,5zm35 -809c-26,-8 -54,-17 -72,-38 -25,-11 -47,-65 -58,-87 -5,-20 -10,-40 -15,-59 -5,-35 -9,-70 -13,-104 0,-89 0,-176 0,-262 4,-29 -1,-65 9,-91 4,-76 16,-154 58,-219 9,-9 19,-18 28,-25 10,-7 22,-12 33,-17 47,-8 82,-13 129,0 14,9 30,18 45,28 11,13 21,26 32,39 3,9 7,18 13,29 3,13 7,26 12,39 4,18 8,36 13,54 6,55 15,109 17,164 0,73 0,145 0,219 -6,47 -11,94 -17,142 -3,6 -6,13 -9,21 -2,19 -11,40 -16,58 -16,22 -32,44 -47,66 -13,9 -25,18 -37,27 -15,4 -31,8 -45,13 -21,0 -40,2 -60,3z"/>
   <path class="fil2" d="M11667 12803c-132,0 -250,-97 -288,-222 -21,-42 -23,-96 -31,-142 -2,-35 -2,-70 -2,-104 6,-49 10,-115 34,-159 30,-90 113,-170 203,-200 21,-11 43,-22 67,-26 78,-31 168,-49 250,-70 3,-3 9,-5 14,-7 35,-8 71,-19 102,-35 23,-15 45,-35 55,-61 4,-15 8,-31 13,-47 0,-19 0,-39 0,-58 -5,-19 -9,-39 -13,-58 -8,-13 -16,-26 -23,-39 -29,-29 -47,-39 -86,-52 -29,-2 -57,-2 -84,-2 -42,12 -90,22 -107,67 -1,0 -3,0 -4,0 -6,10 -12,22 -17,33 -5,17 -9,34 -13,51 -2,26 -4,52 -5,78 -110,0 -219,0 -328,0 -20,-9 -6,-117 -4,-143 4,-18 7,-36 13,-54 10,-26 20,-51 31,-76 17,-26 35,-52 53,-76 8,-9 17,-19 26,-26 23,-16 47,-39 75,-48 25,-25 93,-39 126,-48 22,-6 44,-10 67,-13 135,-8 279,-15 409,28 20,8 54,17 70,33 22,6 39,26 58,33 0,2 0,3 0,4 17,12 34,31 44,47 25,25 39,68 52,100 0,16 5,30 11,44 3,29 7,57 13,86 1,318 2,636 3,954 0,56 22,118 42,169 -3,3 -4,5 -5,9 -118,0 -237,0 -355,1 -18,-18 -20,-48 -32,-68 -1,-12 -11,-74 -22,-80 -12,12 -15,34 -29,41 -30,53 -92,96 -149,114 -33,6 -64,13 -95,19 -47,0 -93,2 -139,3zm175 -251c-28,-6 -51,-13 -75,-31 -61,-73 -65,-174 -43,-263 9,-20 18,-38 28,-56 10,-11 20,-21 31,-31 21,-12 36,-28 61,-34 30,-14 63,-25 97,-30 3,-3 5,-4 9,-5 22,-4 82,-21 95,-39 8,-5 16,-9 25,-13 4,-1 7,-1 11,-1 0,100 0,201 2,302 -6,29 -12,62 -26,88 -15,17 -28,34 -41,51 -18,13 -36,26 -54,39 -12,4 -23,8 -35,13 -29,3 -57,6 -85,10z"/>
   <path class="fil2" d="M13737 12803c-44,0 -97,-16 -136,-33 -12,-7 -24,-15 -36,-22 -16,-13 -38,-26 -48,-44 -33,-40 -57,-87 -76,-135 -5,-15 -9,-31 -13,-47 -5,-28 -9,-57 -13,-84 0,-112 1,-235 67,-331 0,-5 4,-8 8,-9 20,-39 70,-82 112,-98 0,-1 0,-2 0,-3 27,-11 54,-26 83,-34 3,-3 5,-5 9,-7 108,-31 217,-70 326,-91 21,-9 41,-18 62,-26 12,-10 24,-19 35,-28 8,-14 16,-29 25,-42 3,-11 5,-23 9,-35 0,-19 0,-37 1,-56 -5,-23 -10,-45 -14,-67 -5,-10 -10,-20 -14,-29 -1,0 -3,0 -4,0 -20,-33 -53,-48 -90,-59 -33,0 -66,0 -98,0 -38,10 -59,23 -86,50 -9,13 -17,26 -25,41 -5,14 -9,28 -13,42 -1,17 -1,84 -11,94 -111,-1 -220,-1 -329,-1 -1,-2 -2,-3 -4,-4 0,-47 -2,-96 5,-143 9,-43 28,-82 41,-121 4,-9 9,-18 14,-26 1,0 3,0 5,0 0,-9 5,-18 13,-22 12,-16 23,-31 35,-47 44,-33 92,-72 147,-85 21,-11 45,-12 66,-22 30,-6 60,-11 90,-16 85,0 174,-1 259,3 32,6 71,7 99,22 64,10 122,48 171,85 0,7 12,12 15,19 31,31 50,72 66,112 4,15 8,30 12,46 4,29 7,57 13,87 1,302 2,605 4,909 1,30 2,60 3,91 4,18 8,36 13,56 8,20 16,42 25,64 0,4 0,8 0,13 -119,2 -239,3 -358,4 -25,-24 -33,-70 -38,-102 -5,-14 -9,-29 -13,-43 -1,-1 -3,-3 -4,-3 -13,24 -32,50 -49,69 -9,4 -34,27 -35,37 -22,12 -44,25 -65,40 -40,11 -82,22 -123,28 -47,0 -93,2 -138,3zm173 -251c-12,-2 -24,-5 -35,-7 -36,-17 -68,-45 -76,-85 -22,-44 -19,-97 -19,-147 2,-18 6,-36 10,-54 4,-11 8,-21 13,-30 20,-31 36,-52 66,-73 30,-13 61,-26 93,-39 31,-9 62,-17 93,-24 19,-15 73,-44 95,-44 0,98 1,198 2,298 -5,20 -9,39 -13,60 -9,17 -18,34 -26,52 -7,5 -13,8 -13,18 -2,0 -3,0 -5,0 -19,30 -66,52 -98,65 -30,3 -59,6 -87,10z"/>
   <path class="fil2" d="M9856 12776c-4,-3 -7,-4 -9,-6 -2,-651 -2,-1303 -2,-1954 269,0 538,0 808,0 0,2 0,4 0,7 21,5 55,2 69,17 49,11 92,39 136,61 0,4 76,63 78,65 3,7 4,10 11,13 18,27 36,54 55,83 12,26 26,52 34,79 1,4 4,8 7,13 9,43 23,88 28,132 1,39 14,119 4,156 -3,35 -5,70 -8,107 -10,33 -19,67 -28,101 -7,17 -18,52 -30,64 -18,41 -47,75 -74,111 -21,16 -42,33 -61,50 0,1 0,2 0,5 -17,10 -34,21 -51,31 -52,26 -106,49 -162,60 -5,1 -9,2 -13,5 -27,4 -53,8 -79,13 -107,2 -213,5 -320,8 -1,2 -2,6 -2,10 -3,254 -4,509 -6,763 -2,2 -5,3 -6,4 -127,0 -253,0 -379,2zm398 -1074c-3,-4 -6,-8 -9,-11 0,-190 0,-381 0,-572 3,-3 6,-5 8,-8 79,0 164,-4 242,4 14,4 30,8 45,13 8,4 17,8 26,13 13,10 27,21 42,32 9,13 19,26 29,41 6,14 11,28 17,44 28,54 25,128 25,188 -5,25 -9,51 -13,77 -5,14 -10,28 -16,44 -13,18 -25,37 -38,57 -23,19 -50,39 -76,53 -19,5 -39,11 -57,16 -75,2 -151,5 -225,9z"/>
   <path class="fil2" d="M12777 12776c-4,-3 -7,-6 -11,-7 -2,-652 -2,-1302 -2,-1953 128,0 255,0 383,0 -1,651 -1,1301 -1,1953 -4,1 -6,3 -9,4 -121,0 -240,1 -360,3z"/>
   <path class="fil2" d="M14835 12776c-1,-3 -2,-4 -4,-6 0,-488 0,-976 0,-1464 2,-4 3,-7 4,-9 116,-2 231,-2 347,-2 3,0 5,2 9,3 1,3 3,5 4,9 0,20 -5,148 8,155 10,-19 22,-35 34,-52 35,-42 88,-96 142,-111 30,-19 69,-22 103,-35 79,-6 169,-10 245,13 21,9 51,16 68,33 28,9 52,43 75,62 13,20 26,39 39,60 4,10 8,21 13,31 4,13 8,27 13,41 5,28 11,56 16,85 0,393 0,787 0,1181 -2,0 -3,2 -3,3 -123,0 -247,0 -369,0 -2,-1 -4,-3 -5,-3 -1,-349 -2,-697 -2,-1045 -4,-23 -8,-47 -11,-69 -8,-24 -18,-46 -34,-67 -59,-44 -123,-40 -193,-26 -12,6 -23,13 -35,19 -38,19 -59,65 -73,103 -5,30 -10,60 -14,91 -1,331 -1,662 -1,993 -3,1 -4,3 -6,4 -123,0 -246,1 -370,3z"/>
  </g>
 </g>
</svg>
